<?xml version="1.0" standalone="no"?>
<!DOCTYPE svg PUBLIC "-//W3C//DTD SVG 20010904//EN"
 "http://www.w3.org/TR/2001/REC-SVG-20010904/DTD/svg10.dtd">
<svg version="1.0" xmlns="http://www.w3.org/2000/svg"
 width="527.000000pt" height="527.000000pt" viewBox="0 0 527.000000 527.000000"
 preserveAspectRatio="xMidYMid meet">
<metadata>
Created by potrace 1.14, written by Peter Selinger 2001-2017
</metadata>
<g transform="translate(0.000000,527.000000) scale(0.100000,-0.100000)"
fill="#000000" stroke="none">
<path d="M2108 5195 c-2 -2 -43 -6 -93 -10 -49 -3 -97 -8 -105 -10 -8 -2 -35
-7 -60 -10 -309 -41 -595 -144 -835 -302 -482 -318 -868 -956 -975 -1613 -7
-41 -14 -83 -16 -93 -12 -67 -19 -214 -19 -407 1 -225 4 -282 31 -477 10 -81
15 -111 24 -153 5 -25 12 -61 15 -80 20 -121 98 -419 151 -580 33 -98 137
-322 186 -400 111 -178 291 -372 458 -496 138 -102 200 -140 335 -207 233
-116 506 -203 758 -241 163 -25 187 -27 392 -31 196 -3 234 -1 430 31 90 14
234 57 310 93 187 88 276 206 277 367 1 84 -27 181 -78 267 -33 56 -59 92
-225 302 -190 241 -169 345 77 380 76 11 349 4 422 -10 10 -2 43 -6 73 -10 30
-4 63 -8 74 -10 11 -1 47 -6 80 -10 33 -4 69 -10 80 -13 43 -10 356 -8 455 4
129 16 141 18 239 49 192 61 356 187 483 370 157 226 219 447 214 760 -2 94
-6 177 -9 185 -3 8 -8 33 -11 55 -4 35 -14 88 -30 161 -8 38 -47 168 -73 244
-172 497 -512 911 -1044 1273 -231 157 -510 313 -719 402 -36 15 -83 35 -105
45 -113 49 -395 128 -510 144 -71 9 -129 18 -155 23 -27 6 -496 13 -502 8z
m467 -159 c17 -3 53 -7 80 -11 28 -3 61 -7 75 -10 14 -3 37 -7 52 -10 224 -41
470 -130 735 -266 384 -196 695 -413 939 -654 182 -181 264 -284 376 -475 132
-224 240 -540 274 -800 18 -141 7 -353 -25 -490 -25 -110 -96 -261 -165 -354
-167 -223 -337 -313 -642 -341 -127 -12 -307 -11 -389 1 -44 7 -102 15 -130
19 -27 3 -66 9 -85 11 -244 34 -473 37 -613 9 -124 -25 -231 -107 -256 -198
-20 -71 -10 -160 28 -236 38 -77 51 -95 171 -246 110 -138 138 -176 167 -226
63 -110 70 -230 16 -296 -72 -90 -192 -148 -393 -189 -153 -31 -227 -38 -405
-38 -480 2 -952 136 -1317 376 -103 67 -90 58 -189 142 -164 140 -294 302
-397 496 -42 78 -94 198 -97 220 0 3 -3 10 -6 15 -24 39 -133 465 -165 645
-18 100 -25 141 -29 185 -3 28 -8 57 -10 65 -17 64 -25 476 -12 627 8 90 27
235 32 243 2 3 6 26 10 50 7 51 51 224 65 255 5 11 16 45 26 75 79 254 271
587 469 814 236 270 590 473 948 542 10 2 26 5 35 8 39 12 245 38 337 43 55 3
101 7 103 8 5 4 357 -3 387 -9z"/>
<path d="M2177 4723 c-256 -44 -472 -260 -463 -465 7 -161 219 -397 409 -453
59 -17 154 -19 212 -5 177 46 334 207 385 392 20 76 9 201 -24 270 -66 138
-219 247 -369 264 -29 3 -56 7 -62 8 -5 2 -45 -3 -88 -11z m227 -177 c62 -30
120 -85 149 -140 35 -66 31 -164 -10 -246 -90 -184 -283 -266 -433 -185 -65
36 -176 143 -214 207 -51 88 -33 172 58 261 128 126 316 169 450 103z"/>
<path d="M997 3880 c-86 -23 -128 -43 -208 -96 -156 -103 -239 -265 -210 -406
29 -138 219 -341 373 -400 64 -24 170 -30 240 -14 214 50 397 275 400 493 4
280 -305 499 -595 423z m280 -177 c57 -26 127 -102 145 -155 23 -65 17 -150
-14 -218 -54 -119 -181 -216 -293 -223 -51 -3 -165 27 -165 43 0 5 -8 11 -18
14 -29 10 -130 113 -168 171 -56 89 -47 168 33 256 72 80 199 143 298 148 28
2 51 4 53 6 5 4 88 -22 129 -42z"/>
<path d="M4025 3195 c-127 -35 -268 -132 -339 -232 -96 -137 -96 -274 2 -415
66 -95 183 -198 274 -241 220 -104 493 14 618 265 37 75 43 96 47 171 4 57 1
103 -8 134 -41 148 -176 276 -334 318 -71 18 -192 18 -260 0z m223 -150 c143
-41 225 -139 226 -270 1 -60 -4 -80 -31 -136 -91 -184 -283 -266 -433 -184
-67 37 -177 143 -214 207 -52 90 -33 171 61 264 110 108 265 155 391 119z"/>
<path d="M1075 2602 c-192 -20 -387 -151 -467 -312 -27 -55 -32 -76 -33 -140
0 -109 40 -185 160 -306 134 -135 237 -187 368 -183 277 8 518 285 485 558
-27 225 -272 408 -513 383z m187 -184 c113 -52 172 -139 173 -253 0 -60 -5
-81 -33 -137 -82 -167 -263 -254 -406 -194 -101 42 -247 197 -266 281 -25 111
96 252 268 312 88 31 183 28 264 -9z"/>
<path d="M1985 1613 c-130 -22 -231 -64 -315 -131 -60 -47 -80 -68 -118 -124
-46 -67 -64 -123 -64 -200 -1 -98 46 -191 150 -296 152 -156 285 -210 443
-182 259 46 461 326 416 575 -27 151 -163 292 -327 339 -56 16 -147 26 -185
19z m203 -190 c63 -32 116 -88 144 -151 79 -178 -114 -445 -322 -445 -93 0
-202 63 -290 170 -61 73 -79 110 -80 161 -1 133 180 282 370 304 44 6 123 -12
178 -39z"/>
</g>
</svg>
