<svg width="45" height="72" viewBox="0 0 45 72" fill="none" xmlns="http://www.w3.org/2000/svg">
<path d="M31.915 54.0467V64.0221C31.915 66.2236 30.1303 68.0082 27.9289 68.0082C27.9289 69.6605 26.5894 71 24.9371 71H18.9623C17.31 71 15.9705 69.6605 15.9705 68.0082H14.9879C12.7787 68.0082 10.9879 66.2174 10.9879 64.0083V54.0467C10.9879 54.0467 11.0538 46.5759 9.99134 42.0797C8.11426 34.1358 0.534062 31.285 1.02258 23.132C1.37148 17.3091 3.0607 13.4269 7.00176 9.17047C11.7858 4.00363 16.9605 2.63227 23.9428 2.18971C30.3529 1.78341 35.3116 1.61647 39.8872 6.17871C45.017 11.2935 44.4928 18.0239 42.8768 25.1265C41.2856 32.1199 35.845 33.1817 33.908 40.0852C32.4093 45.4271 31.915 54.0467 31.915 54.0467Z" fill="#BC68DA"/>
<path d="M31.915 54.0467V64.0221C31.915 66.2236 30.1303 68.0082 27.9289 68.0082V68.0082M31.915 54.0467C31.915 54.0467 32.4093 45.4271 33.908 40.0852C35.845 33.1817 41.2856 32.1199 42.8768 25.1265C44.4928 18.0239 45.017 11.2935 39.8872 6.17871C35.3116 1.61647 30.3529 1.78341 23.9428 2.18971C16.9605 2.63227 11.7858 4.00363 7.00176 9.17047C3.0607 13.4269 1.37148 17.3091 1.02258 23.132C0.534062 31.285 8.11426 34.1358 9.99134 42.0797C11.0537 46.5759 10.9879 54.0467 10.9879 54.0467M31.915 54.0467H24.9393M10.9879 54.0467V64.0083C10.9879 66.2174 12.7787 68.0082 14.9879 68.0082H15.9705M10.9879 54.0467H19.9566M15.9705 68.0082V68.0082C15.9705 69.6605 17.31 71 18.9623 71H24.9371C26.5894 71 27.9289 69.6605 27.9289 68.0082V68.0082M15.9705 68.0082H27.9289M19.9566 54.0467H24.9393M19.9566 54.0467C19.9566 54.0467 21.3074 43.5599 19.9566 38.0907C16.3544 23.5059 16.8109 24.6606 16.9415 25.0483C16.9592 25.1005 16.9784 25.1491 17.0043 25.1977C17.2785 25.7104 19.0251 28.8009 20.9532 28.1182C22.3685 27.6171 21.6097 25.8146 22.9462 25.1265C23.8358 24.6685 25.0669 25.1006 25.9247 25.5305C26.4741 25.8058 27.1808 25.6264 27.4555 25.0767L27.8748 24.2374C28.3896 23.2071 29.9637 23.7201 29.7718 24.8558C29.1758 28.3844 28.4625 32.6751 27.9289 36.0962C26.8211 43.1979 24.9393 54.0467 24.9393 54.0467" stroke="white" stroke-width="2"/>
</svg>
