<svg width="415" height="393" viewBox="0 0 415 393" fill="none" xmlns="http://www.w3.org/2000/svg">
<path d="M184.945 115.744C179.864 104.362 159.985 69.5025 114.327 91.6277C84.1614 106.245 94.6985 143.503 94.7006 147.695C94.7027 151.888 48.4397 143.127 54.7034 191.367C60.2956 234.435 110.629 209.652 121.357 203.844C122.13 203.425 123.062 204.138 122.905 205.004C121.431 213.131 117.776 240.676 133.817 249.862C150.177 259.23 181.288 238.304 189.361 232.506C190.089 231.983 191.137 232.588 191.063 233.481C190.248 243.362 189.314 280.635 220.374 289.234C250.825 297.665 270.926 276.651 274.572 272.454C274.918 272.055 275.481 271.954 275.924 272.241C282.032 276.191 323.89 301.609 354.2 276.995C383.963 252.825 355.58 223.261 349.506 217.504C348.988 217.013 349.108 216.137 349.717 215.765C355.407 212.299 377.538 196.349 370.711 161.375C360.171 107.387 297.444 130.788 288.218 134.547C287.617 134.792 286.968 134.412 286.827 133.779C285.125 126.142 274.343 85.8529 236.013 84.1211C202.177 82.5923 190.559 106.466 187.357 115.634C187.021 116.596 185.36 116.674 184.945 115.744Z" fill="#36C1ED"/>
<path d="M167.118 116.573C161.839 105.03 140.798 68.7007 92.948 91.8909C61.4849 107.139 73.2832 145.82 73.287 150.197C73.2908 154.574 24.4685 145.711 31.0216 196.074C36.8827 241.118 89.3146 215.419 100.323 209.489C101.099 209.07 102.033 209.79 101.87 210.657C100.329 218.865 96.4831 246.804 113.232 256.406C130.391 266.243 162.901 244.765 171.065 239.013C171.786 238.505 172.816 239.095 172.757 239.976C172.089 249.962 171.628 289.042 204.219 298.083C236.052 306.914 256.93 285.516 260.65 281.321C260.996 280.93 261.553 280.829 261.993 281.11C268.193 285.071 311.736 311.211 343.41 285.475C374.506 260.208 344.619 228.879 338.334 222.869C337.814 222.372 337.946 221.483 338.57 221.122C344.532 217.671 368.041 201.528 360.891 164.944C349.851 108.453 284.608 132.538 275.278 136.295C274.686 136.534 274.046 136.17 273.897 135.549C272.045 127.848 260.124 85.8455 219.999 84.0164C184.55 82.4004 172.707 107.109 169.514 116.427C169.184 117.388 167.54 117.497 167.118 116.573Z" stroke="#363636" stroke-width="3" stroke-linecap="round"/>
</svg>
