<svg width="219" height="175" viewBox="0 0 219 175" fill="none" xmlns="http://www.w3.org/2000/svg">
<ellipse cx="96" cy="75.5" rx="52" ry="35.5" fill="#FDFFA5"/>
<path d="M33.5762 26.3713C40.1051 38.0802 46.25 47.2755 56.0573 56.3489" stroke="#363636" stroke-width="3" stroke-linecap="round"/>
<path d="M70.4336 9.13794C74.4267 19.9078 77.2827 30.6553 80.5316 41.6272" stroke="#363636" stroke-width="3" stroke-linecap="round"/>
<path d="M123.39 12.8176C119.815 23.7493 115.367 33.9526 111.086 44.5774" stroke="#363636" stroke-width="3" stroke-linecap="round"/>
<path d="M191.606 66.4302C179.668 72.5221 169.447 76.7399 156.25 78.8174" stroke="#363636" stroke-width="3" stroke-linecap="round"/>
<path d="M170.43 30.5405C161.121 37.2642 152.769 44.6023 143.966 51.9082" stroke="#363636" stroke-width="3" stroke-linecap="round"/>
<path d="M33.583 27.3716C40.112 39.0805 46.2568 48.2758 56.0641 57.3491" stroke="#363636" stroke-width="3" stroke-linecap="round"/>
<path d="M10.8301 66.5305C23.3583 71.2657 33.9755 74.3276 47.316 74.9324" stroke="#363636" stroke-width="3" stroke-linecap="round"/>
<path d="M71.4316 9.13184C75.4247 19.9017 78.2807 30.6492 81.5296 41.6211" stroke="#363636" stroke-width="3" stroke-linecap="round"/>
<path d="M124.393 13.8118C120.814 24.7289 116.36 34.9188 112.074 45.5295" stroke="#363636" stroke-width="3" stroke-linecap="round"/>
<path d="M190.604 65.436C178.663 71.5285 168.439 75.7468 155.239 77.8257" stroke="#363636" stroke-width="3" stroke-linecap="round"/>
<path d="M192.804 101.441C179.394 101.78 168.344 101.171 155.526 97.3489" stroke="#363636" stroke-width="3" stroke-linecap="round"/>
<path d="M169.434 30.5466C160.122 37.2703 151.768 44.6082 142.962 51.9139" stroke="#363636" stroke-width="3" stroke-linecap="round"/>
<path d="M15.1299 120.532C24.892 111.344 33.5284 104.436 45.6191 98.7513" stroke="#363636" stroke-width="3" stroke-linecap="round"/>
<path d="M45.25 148.364C52.3111 139.304 58.2814 129.923 64.6941 120.446" stroke="#363636" stroke-width="3" stroke-linecap="round"/>
<path d="M97.2578 161.054C97.1533 149.552 95.9956 138.481 95.1247 127.059" stroke="#363636" stroke-width="3" stroke-linecap="round"/>
<path d="M175.019 135.568C166.221 125.455 158.316 117.723 146.851 110.865" stroke="#363636" stroke-width="3" stroke-linecap="round"/>
<path d="M142.201 160.781C136.078 151.065 131.072 141.136 125.636 131.07" stroke="#363636" stroke-width="3" stroke-linecap="round"/>
<path d="M128.951 64.1964C109.991 48.6195 84.0045 48.6505 71.0266 53.6584C61.067 57.5015 52.6416 67.3018 52.2894 83.2165C52.0314 94.8769 56.6317 110.887 85.0358 117.794C106.347 122.976 122.454 119.843 136.583 110.766C157.671 97.2167 155.623 67.2857 125.872 50.3874" stroke="#363636" stroke-width="3" stroke-linecap="round"/>
</svg>
