<svg width="65" height="61" viewBox="0 0 65 61" fill="none" xmlns="http://www.w3.org/2000/svg">
<path d="M57.7928 59.9999H11.0506C9.2868 59.9999 7.72185 58.85 7.29575 57.1384C3.25256 40.8975 3.35517 16.0403 7.08531 16.0403C9.39449 16.0403 13.4686 20.2921 17.0213 24.7274C19.2979 27.5694 24.7127 26.6545 26.1494 23.3085C28.6961 17.3775 32.033 12.044 33.9417 12.0439C35.3295 12.0439 38.4447 17.8541 40.856 23.7324C42.2154 27.0465 47.0945 27.7115 48.8758 24.6038C52.3965 18.4615 56.2568 12.0439 58.8087 12.0439C61.6914 12.0439 61.7941 38.5967 61.7935 56.0071C61.7934 58.2163 60.0019 59.9999 57.7928 59.9999Z" fill="#BC68DA" stroke="white" stroke-width="2"/>
<path d="M5.09674 6.07983C6.68334 6.43017 7.58342 8.3608 7.14586 10.0454C6.68577 11.8167 4.78183 12.7805 3.19759 12.1039C2.38062 11.755 1.52375 11.0099 1.17847 10.1363C0.420246 8.2179 3.20751 5.66267 5.09674 6.07983Z" fill="#BC68DA" stroke="white" stroke-width="2"/>
<path d="M35.9317 1.08425C37.5183 1.43457 38.4183 3.36519 37.9808 5.04979C37.5207 6.82115 35.6167 7.78498 34.0325 7.1084C33.2155 6.7595 32.3586 6.01442 32.0134 5.1408C31.2552 3.22239 34.0425 0.667119 35.9317 1.08425Z" fill="#BC68DA" stroke="white" stroke-width="2"/>
<path d="M61.794 2.08325C63.3806 2.43358 64.2807 4.36422 63.8431 6.04881C63.383 7.82017 61.4791 8.78396 59.8949 8.10737C59.0779 7.75845 58.221 7.01337 57.8757 6.13974C57.1175 4.22132 59.9048 1.66609 61.794 2.08325Z" fill="#BC68DA" stroke="white" stroke-width="2"/>
</svg>
