<svg width="237" height="251" viewBox="0 0 237 251" fill="none" xmlns="http://www.w3.org/2000/svg">
<path d="M94.287 189.812C112.22 185.898 215.985 166.957 224.957 169.116C236.171 171.814 124.75 198.009 119.565 202.052C115.417 205.286 209.437 196.238 215.019 196.07C220.602 195.902 151.675 218.025 156.321 241.915" stroke="#FD83BE" stroke-width="4" stroke-linecap="round"/>
<path d="M95.287 185.812C113.22 181.898 216.985 162.957 225.957 165.116C237.171 167.814 125.75 194.009 120.565 198.052C116.417 201.286 210.437 192.238 216.019 192.07C221.602 191.902 152.675 214.025 157.321 237.915" stroke="#363636" stroke-width="2" stroke-linecap="round"/>
<path d="M76.5369 153.434L82.8522 167.902C84.1893 170.965 81.4028 174.22 78.1701 173.371L62.267 169.194M76.5369 153.434C76.5369 153.434 70.1359 156.383 67.1836 159.559C64.2409 162.725 62.267 169.194 62.267 169.194M76.5369 153.434L50.1492 134.363L25.5162 113.074M25.5162 113.074C25.5162 113.074 16.343 105.307 13.4315 104.416C10.5201 103.525 9.5053 107.009 5.18746 111.419C2.85692 113.799 2.47868 118.585 2.45302 121.129C2.44217 122.205 2.94764 123.2 3.78016 123.88C6.03093 125.721 10.6005 129.321 12.3555 129.712M25.5162 113.074C25.5162 113.074 19.61 115.943 17.1563 119.084C14.439 122.561 12.3555 129.712 12.3555 129.712M12.3555 129.712L37.634 147.905L62.267 169.194" stroke="#363636" stroke-width="2" stroke-linecap="round"/>
<path d="M112.645 90.319L104.545 103.788C102.823 106.652 98.556 106.266 97.3752 103.14L91.5682 87.7663M112.645 90.319C112.645 90.319 106.541 86.7993 102.25 86.2224C97.9718 85.6474 91.5682 87.7663 91.5682 87.7663M112.645 90.319L112.882 57.8103L115.939 25.4539M115.939 25.4539C115.939 25.4539 116.946 13.4972 115.986 10.6096C115.025 7.72193 111.605 8.90203 105.519 7.92309C102.238 7.39535 98.133 9.83878 96.0468 11.2847C95.161 11.8987 94.6413 12.8893 94.5694 13.9647C94.3755 16.863 94.093 22.6565 94.7908 24.3112M115.939 25.4539C115.939 25.4539 110.187 22.2911 106.213 22.1004C101.812 21.8892 94.7908 24.3112 94.7908 24.3112M94.7908 24.3112L94.6252 55.4099L91.5682 87.7663" stroke="#363636" stroke-width="2" stroke-linecap="round"/>
</svg>
