<svg width="480" height="507" viewBox="0 0 480 507" fill="none" xmlns="http://www.w3.org/2000/svg">
<path d="M261.518 97.4571C261.868 100.345 261.779 102.52 262.05 105.689C262.787 114.286 261.883 124.407 259.795 134.764M261.518 97.4571C259.079 77.3505 255.001 63.7102 252.56 56.8635C252.186 55.8143 253.693 54.8173 254.49 55.596L283.413 83.8703C284.436 84.8707 285.904 85.2521 287.285 84.8779C297.641 82.0722 341.964 70.5012 371.367 69.7214M261.518 97.4571C261.518 97.4571 243.933 88.797 235.022 97.7039C220.673 112.046 222.137 125.598 204.655 135.883C182.874 148.696 159.024 129.013 141.638 135.563C124.251 142.112 116.156 179.425 104.013 185.635C91.8696 191.845 71.2912 188.129 62.3896 185.154M259.795 134.764C259.795 134.764 252.651 130.219 245.027 132.068C226.33 136.604 221.413 157.467 210.369 160.312C199.326 163.158 169.838 151.094 150.665 158.564C128.006 167.392 130.896 187.349 115.641 199.96C103.717 209.817 83.2792 213.228 78.1291 210.397M259.795 134.764C257.076 148.256 252.745 163.245 246.97 177.162M246.97 177.162C246.97 177.162 230.736 174.554 220.654 176.425C199.674 180.319 197.291 209.194 180.621 211.822C163.95 214.451 153.913 198.43 142.583 202.844C131.253 207.258 125.567 221.217 117.411 234.854C109.255 248.49 86.1719 233.218 86.1719 233.218M246.97 177.162C242.83 187.14 237.566 196.147 232.721 205.065M232.721 205.065C227.656 214.39 223.052 222.865 218.027 229.836C196.346 259.91 130.915 255.622 130.915 255.622L142.365 421.417C142.365 421.417 177.29 412.522 198.411 404.195C216.115 397.215 240.943 384.364 248.512 380.39C249.907 379.657 251.577 379.797 252.793 380.798C259.06 385.956 278.392 402.753 287.019 420.371C290.84 428.174 293.841 439.31 295.953 449.456M232.721 205.065C232.721 205.065 212.55 202.844 206.132 211.396C199.714 219.947 200.093 227.404 187.054 232.316C174.014 237.228 152.004 225.726 145.164 227.719C136.752 230.169 132.522 236.691 128.148 242.915M295.953 449.456C297.64 457.558 299.061 464.978 299.893 469.421C300.324 471.725 302.628 473.181 304.891 472.57L320.483 468.361C322.09 467.928 323.258 466.548 323.38 464.887C323.7 460.525 324.23 451.379 324.066 440.353M295.953 449.456L324.066 440.353M324.066 440.353C323.883 428.054 322.807 413.839 319.701 402.951C314.578 384.991 299.789 361.168 294.559 353.067C293.495 351.419 293.745 349.243 295.146 347.871C301.831 341.327 320.472 322.424 329.067 307.048C333.854 298.485 337.59 291.819 340.269 284.69M349.875 237.637C352.631 212.214 352.657 186.438 352.611 179.787C352.604 178.722 353.009 177.717 353.758 176.961C357.895 172.787 372.291 158.489 384.299 149.359M349.875 237.637C348.856 247.03 347.926 256.283 346.01 264.385C344.144 272.274 342.483 278.8 340.269 284.69M349.875 237.637C358.196 238.886 386.09 252.637 400.253 268.187C404.825 273.207 409.174 282.839 413.039 292.891M340.269 284.69C340.269 284.69 366.383 286.447 379.112 294.832C383.424 297.672 387.652 302.644 391.099 307.188M391.099 307.188C394.416 311.56 397.014 315.771 398.646 318.603C399.754 320.528 402.191 321.314 404.169 320.305L416.758 313.877C418.444 313.017 419.3 311.092 418.75 309.281C417.273 304.408 415.182 298.467 413.039 292.891M391.099 307.188L413.039 292.891M371.367 69.7214C376.753 69.5785 380.399 69.3367 384.525 70.09C414.296 75.5249 425.482 85.3673 422.19 103.403C418.898 121.439 406.144 135.108 387.612 147.93C386.164 148.932 385.81 148.21 384.299 149.359M371.367 69.7214C371.367 69.7214 365.537 95.9816 369.371 114.096C372.365 128.241 384.299 149.359 384.299 149.359" stroke="#363636" stroke-width="4"/>
<path d="M317.362 102.445C317.362 102.445 314.157 127.886 327.819 128.757C343.782 129.775 342.694 103.002 342.694 103.002" stroke="#363636" stroke-width="4" stroke-linecap="round"/>
<ellipse rx="3.00243" ry="4.00108" transform="matrix(0.983741 0.179592 -0.179554 0.983748 392.398 92.1716)" fill="#363636"/>
<ellipse rx="3.00238" ry="4.00115" transform="matrix(0.999142 0.0414268 -0.0412754 0.999148 405.013 89.8499)" fill="#363636"/>
</svg>
