<svg width="145" height="155" viewBox="0 0 145 155" fill="none" xmlns="http://www.w3.org/2000/svg">
<path d="M84.3956 28.5123C83.9505 29.324 83.7196 29.9772 83.2645 30.8812C82.0298 33.334 81.0995 36.4309 80.491 39.7378M84.3956 28.5123C86.2656 25.1023 88.0333 22.4583 89.4777 20.5165C90.1426 19.6228 88.9699 17.9947 87.941 18.4214L80.9913 21.304C79.6693 21.8523 78.1574 21.6547 77.0059 20.805C72.9115 17.7835 62.8387 10.6091 55.224 7.323M84.3956 28.5123C84.3956 28.5123 90.6151 28.0342 92.1941 31.7198C94.7367 37.6544 92.7009 41.485 96.649 46.5915C101.568 52.9537 110.942 49.9604 115.304 53.9522C119.666 57.9439 117.643 69.9249 120.496 73.1961C123.349 76.4674 129.868 77.8041 132.85 77.9781M80.491 39.7378C80.491 39.7378 83.1394 39.2402 85.1729 40.6884C90.1601 44.2405 89.1447 50.9856 92.0706 53.1328C94.9966 55.2799 105.135 55.2043 109.916 59.6794C115.566 64.9681 112.351 70.5221 115.366 76.0524C117.722 80.3752 123.357 83.8007 125.213 83.5737M80.491 39.7378C79.6983 44.0453 79.2045 48.9861 79.2642 53.7808M79.2642 53.7808C79.2642 53.7808 84.3688 54.9307 87.1261 56.6763C92.8634 60.3085 90.1514 69.121 94.7655 71.8697C99.3796 74.6185 104.24 71.073 107.065 73.7174C109.89 76.3618 109.919 81.1584 110.715 86.1519C111.511 91.1454 120.137 89.3643 120.137 89.3643M79.2642 53.7808C79.307 57.2185 79.7966 60.5021 80.1728 63.7098M80.1728 63.7098C80.5661 67.0639 80.9236 70.1124 81.5836 72.7663C84.4307 84.2161 104.268 90.6897 104.268 90.6897L81.2718 138.316C81.2718 138.316 72.0063 131.557 66.7516 126.598C63.0583 123.113 58.3736 117.816 55.9157 114.975C54.8851 113.784 53.2616 113.291 51.7767 113.816C48.4534 114.992 42.5026 117.424 38.6602 120.895C36.6083 122.748 34.4043 125.683 32.58 128.43M80.1728 63.7098C80.1728 63.7098 86.3947 65.4399 87.2791 68.7256C88.1635 72.0114 87.1693 74.1693 90.4406 77.1632C93.7118 80.157 101.575 79.3629 103.36 80.7607C105.555 82.4798 106.033 84.9069 106.589 87.2631M32.58 128.43C31.8909 129.468 31.2373 130.468 30.6583 131.362C29.3839 133.33 26.7037 133.825 24.8297 132.416L24.6049 132.247C23.2738 131.247 22.7041 129.527 23.2459 127.952C23.7448 126.503 24.4541 124.563 25.3516 122.415M32.58 128.43L25.3516 122.415M25.3516 122.415C26.8607 118.803 28.86 114.731 31.0656 111.882C34.0131 108.074 39.29 103.88 42.5187 101.482C44.0926 100.312 44.6765 98.1947 43.9263 96.3832C42.4513 92.8218 40.2235 86.9105 39.6443 82.441C39.2431 79.3449 38.9279 76.9335 38.9798 74.5104M41.7086 59.4732C43.6132 52.6681 46.1575 46.0277 47.3184 43.1142C47.7123 42.1255 47.7158 41.0215 47.2925 40.045C46.2421 37.6222 44.0781 32.8187 41.9819 29.3206M41.7086 59.4732C40.8982 62.3686 40.0784 65.2124 39.686 67.8326C39.3038 70.3839 39.0228 72.5083 38.9798 74.5104M41.7086 59.4732C39.1024 58.8577 29.2348 59.6201 23.2112 62.5387C21.2666 63.4809 18.8421 65.8118 16.5113 68.3244M38.9798 74.5104C38.9798 74.5104 31.0571 71.9401 26.3047 72.9114C24.6948 73.2404 22.8574 74.2089 21.3014 75.1437M21.3014 75.1437C20.7417 75.48 20.2143 75.8214 19.7305 76.1509C18.0117 77.3215 15.6179 77.1626 14.2501 75.5963V75.5963C13.0844 74.2616 13.0147 72.2922 14.1684 70.9472C14.9076 70.0853 15.7147 69.1832 16.5113 68.3244M21.3014 75.1437L16.5113 68.3244M55.224 7.323C53.6496 6.64355 52.6011 6.14083 51.2931 5.87524C41.8549 3.95894 37.3856 5.5433 36.2245 11.261C35.0633 16.9788 37.2145 22.526 41.1722 28.5065C41.4815 28.9739 41.6714 28.8024 41.9819 29.3206M55.224 7.323C55.224 7.323 53.8396 15.7708 50.5638 20.6688C48.0058 24.4935 41.9819 29.3206 41.9819 29.3206" stroke="#363636"/>
<path d="M67.3071 23.3794C67.3071 23.3794 65.244 31.2745 61.1048 29.9158C56.2685 28.3281 59.7574 20.5473 59.7574 20.5473" stroke="#363636" stroke-linecap="round"/>
<ellipse rx="0.955486" ry="1.27329" transform="matrix(-0.980004 -0.198976 -0.199014 0.979997 46.3542 11.4674)" fill="#363636"/>
<ellipse rx="0.95547" ry="1.27332" transform="matrix(-0.942939 -0.332965 -0.333108 0.942889 42.9024 9.28919)" fill="#363636"/>
</svg>
