<svg width="300" height="355" viewBox="0 0 300 355" fill="none" xmlns="http://www.w3.org/2000/svg">
<path d="M133.407 188.893C133.407 188.893 122.025 218.882 106.268 230.161C97.0103 236.788 81.8465 239.531 70.3053 240.923C64.8009 241.587 60.0237 241.933 56.8347 242.11C54.562 242.236 52.7874 244.182 52.9308 246.453L54.0648 264.419C54.1986 266.539 55.9498 268.179 58.0729 268.112C68.9327 267.774 100.657 266.135 118.643 258.356C140.504 248.9 162.172 221.593 162.172 221.593" stroke="black" stroke-width="4"/>
<path d="M72.3359 240.842L75.9244 267.168" stroke="black" stroke-width="4"/>
<path d="M174.419 313.807L202.254 326.881" stroke="black" stroke-width="4"/>
<path d="M162.976 104.246C192.628 76.8379 240.935 77.2409 263.549 77.5637L260.253 232.29L232.503 234.587C230.539 234.75 228.984 236.308 228.807 238.27C227.938 247.91 224.996 275.828 218.775 293.007C212.534 310.242 197.406 334.324 192.156 342.445C191.101 344.077 189.027 344.673 187.249 343.889L171.373 336.889C169.439 336.037 168.497 333.831 169.206 331.841C172.589 322.339 181.649 296.032 183.275 282.394C183.275 282.394 183.066 251.623 176.265 233.142C174.211 227.559 168.468 224.835 162.968 222.567C150.147 217.281 137.274 203.246 131.817 185.484C129.085 176.588 130.175 167.081 132.235 158.006C136.723 138.234 140.039 128.762 147.516 119.366M162.976 104.246C162.976 104.246 148.601 100.762 141.975 92.6244C132.893 81.4699 143.326 61.9877 138.514 56.0995C131.029 46.9402 100.397 54.3458 97.1555 44.2409C93.9136 34.1359 106.237 17.2697 102.065 11.5404C97.8933 5.8112 87.1155 4.29998 81.9782 5.22569M162.976 104.246C159.379 107.57 156.506 110.829 153.854 113.555M61.2214 21.2646C66.8928 18.8831 80.82 16.9287 83.1167 23.8735C85.4134 30.8183 73.0386 49.0997 76.0463 57.1372C79.0539 65.1747 115.988 63.262 122.847 72.1978C127.596 78.3841 118.628 90.6897 126.996 100.688C133.349 108.279 153.854 113.555 153.854 113.555M153.854 113.555C151.611 115.859 149.233 117.208 147.516 119.366M63.2904 59.5386C62.1899 61.5466 60.7152 67.7657 64.6369 77.2081C69.539 89.0111 88.3395 78.2109 97.8324 84.264C102.209 87.055 103.6 107.046 108.815 114.207C114.03 121.369 147.516 119.366 147.516 119.366" stroke="black" stroke-width="4"/>
</svg>
