<svg width="130" height="68" viewBox="0 0 130 68" fill="none" xmlns="http://www.w3.org/2000/svg">
<path d="M2.48778 5.81668C2.48778 5.81668 19.3673 0.276099 30.0146 2.71958C44.1601 5.96585 44.3341 27.671 39.205 35.9644C34.0758 44.2578 24.9849 40.608 19.8808 37.0595C14.7768 33.511 13.7844 24.9225 19.4684 18.3299C25.1523 11.7372 45.3612 3.85496 62.728 14.29C80.0947 24.725 84.1112 38.7825 72.0811 45.3223C67.6753 47.7174 63.4699 47.6424 59.4298 46.9616C55.3897 46.2807 49.0023 41.0165 53.2234 33.9915C57.4444 26.9665 78.2961 22.1582 90.1573 30.7712C100.781 38.4852 107.44 52.4896 102.245 61.1362C97.0492 69.7828 89.487 65.0218 87.7163 63.9578C85.9456 62.8938 81.22 59.4548 84.0814 52.5329C86.9428 45.6109 102.591 26.8063 127.504 46.2805" stroke="#363636" stroke-width="3" stroke-linecap="round"/>
</svg>
