<svg width="113" height="94" viewBox="0 0 113 94" fill="none" xmlns="http://www.w3.org/2000/svg">
<path d="M110.789 91.5479C110.789 91.5479 94.2145 95.4412 81.0273 86.3753C67.6234 77.1605 57.4028 54.9762 69.654 44.8926C76.2443 39.4683 83.8735 39.1587 90.1437 45.2705C96.3929 51.3617 96.4978 59.2287 91.9535 66.427C82.2242 81.8384 55.192 75.2431 41.7287 62.2886C28.2383 49.3079 20.7181 22.4777 35.845 12.2437C42.92 7.45714 50.9309 7.05741 57.0541 13.3162C63.0561 19.4512 63.4502 27.4699 58.8639 34.4728C49.079 49.4134 22.0389 45.5832 10.0777 31.7236C2.26772 22.6741 0.272268 13.304 3.87234 2.16324" stroke="#363636" stroke-width="3" stroke-linecap="round"/>
</svg>
