<svg width="84" height="61" viewBox="0 0 84 61" fill="none" xmlns="http://www.w3.org/2000/svg">
<path d="M37 5C41.9146 8.11006 47 16 47 16C47 16 54.1023 10.2111 60 9C64.7302 8.02863 71.8877 9.32433 75.9328 10.2385C77.6128 10.6181 78.5447 12.366 78 14L79.4417 14.2403C81.8459 14.641 83.3375 17.0758 82.5971 19.398C81.1187 24.0353 78.7643 31.4271 77 37C74.9788 43.3846 71.9893 52.2358 70.2953 57.2112C69.5823 59.3052 67.3035 60.4233 65.1787 59.8083C60.9856 58.5947 54.1649 56.9032 49 57C44.5943 57.0826 38.6423 58.6385 35.7385 59.4762C34.6278 59.7966 33.4326 59.6578 32.4311 59.0803C29.4611 57.3677 22.8781 53.7089 18 52C13.9311 50.5746 8.32671 49.4286 4.45755 48.7346C2.0937 48.3106 0.556073 45.9612 1.21102 43.6507C2.5895 38.7876 4.91995 30.8305 7 25C9.09376 19.1311 12.2796 11.1466 14.2457 6.29449C15.1637 4.02891 17.8843 3.13057 19.9804 4.38825L21 5L21.1854 4.25828C21.6565 2.37413 23.4132 1.10478 25.3344 1.38931C28.6578 1.8815 33.7256 2.92787 37 5Z" fill="#BC68DA"/>
<path d="M35 55C35 55 26.7902 49.0023 22 48C17.823 47.126 13.7766 46.3684 10.798 45.8331C8.316 45.3871 6.82516 42.7996 7.7106 40.4384L21 5M35 55C35 55 42.8255 52 49 52C52.9994 52 57.8257 53.0367 61.1247 53.8912C63.2758 54.4484 65.5474 53.2735 66.219 51.1554L78 14M35 55C35 55 39.5379 42.704 42 35C44.4621 27.296 47 16 47 16M47 16C47 16 41.9146 8.11006 37 5C33.7256 2.92787 28.6578 1.8815 25.3344 1.38931C23.4132 1.10478 21.6565 2.37413 21.1854 4.25828L21 5M47 16C47 16 54.1023 10.2111 60 9C64.7302 8.02863 71.8877 9.32433 75.9328 10.2385C77.6128 10.6181 78.5447 12.366 78 14V14M21 5L19.9804 4.38825C17.8843 3.13057 15.1637 4.02891 14.2457 6.29449C12.2796 11.1466 9.09376 19.1311 7 25C4.91995 30.8305 2.5895 38.7876 1.21102 43.6507C0.556073 45.9612 2.0937 48.3106 4.45755 48.7346C8.32671 49.4286 13.9311 50.5746 18 52C22.8781 53.7089 29.4611 57.3677 32.4311 59.0803C33.4326 59.6578 34.6278 59.7966 35.7385 59.4762C38.6423 58.6385 44.5943 57.0826 49 57C54.1649 56.9032 60.9856 58.5947 65.1787 59.8083C67.3035 60.4233 69.5823 59.3052 70.2953 57.2112C71.9893 52.2358 74.9787 43.3846 77 37C78.7643 31.4271 81.1187 24.0353 82.5971 19.398C83.3375 17.0758 81.8459 14.641 79.4417 14.2403L78 14" stroke="white" stroke-width="2"/>
</svg>
