<svg width="456" height="332" viewBox="0 0 456 332" fill="none" xmlns="http://www.w3.org/2000/svg">
<path d="M105.895 174.928L75.034 171.684C75.034 171.684 97.5429 95.5462 116.667 72.4335C135.792 49.3207 165.23 25.2609 199.492 21.7798C223.527 19.3378 269.832 20.355 302.975 42.7171C324.178 57.0231 335.122 76.506 342.648 96.185C352.808 122.749 357.035 182.561 357.918 209.465L330.725 209.625M105.895 174.928C105.895 174.928 111.289 142.735 120.293 124.125C130.302 103.437 137.236 90.4747 155.492 76.5141C174.338 62.1027 188.906 53.8824 212.492 51.3164C227.845 49.6462 249.313 50.01 268.241 57.1759C288.002 64.6576 298.474 75.6688 310.792 92.8368C323.365 110.361 324.217 124.5 328.354 145.993C333.094 170.611 330.725 209.625 330.725 209.625M105.895 174.928L136.337 182.152M330.725 209.625L301.541 209.576M301.541 209.576L273.353 209.632C273.353 209.632 286.775 174.362 279.21 153.907C272.291 135.196 269.112 126.399 250.701 118.716C237.282 113.116 219.96 110.291 205.903 114.007C188.839 118.518 180.075 127.074 171.695 142.606C162.926 158.861 166.78 189.376 166.78 189.376L136.337 182.152M301.541 209.576C301.541 209.576 311.98 184.227 310.021 167.206C308.052 150.1 306.248 136.524 298.485 123.738C290.723 110.952 279.75 99.4941 263.689 90.9043C239.99 78.2297 201.86 81.3366 187.403 88.9228C177.817 93.4799 161.672 109.062 150.158 127.264C138.249 146.09 136.498 170.998 136.337 182.152" stroke="white" stroke-width="3" stroke-linecap="round"/>
<path d="M83.375 155.864C77.6425 150.533 62.8966 140.391 46.2593 157.061C34.3253 169.019 46.1994 185.438 46.9373 187.47C47.6752 189.501 23.3813 192.666 34.8711 215.036C44.569 233.916 63.1249 216.922 68.6771 211.162C69.2913 210.524 70.4639 210.893 70.6114 211.765C71.484 216.926 74.4201 228.931 83.0108 230.645C91.8993 232.418 102.171 219.314 105.775 214.237C106.287 213.516 107.497 213.714 107.773 214.554C109.753 220.575 116.453 236.444 131.869 235.648C147.224 234.855 153.456 223.439 154.907 220.237C155.12 219.768 155.621 219.499 156.126 219.605C160.857 220.597 183.608 224.39 193.507 208.135C203.102 192.378 186.919 182.848 182.086 180.441C181.461 180.129 181.275 179.279 181.686 178.714C184.174 175.301 190.404 164.349 181.526 149.428C167.486 125.831 142.935 144.912 137.849 149.258C137.356 149.68 136.601 149.558 136.247 149.015C133.403 144.647 121.573 128.664 103.644 133.787C88.8669 138.009 86.1902 149.054 85.841 154.849C85.7797 155.866 84.1215 156.559 83.375 155.864Z" fill="white" stroke="white" stroke-width="3" stroke-linecap="round"/>
<path d="M305.17 187.904C299.554 182.488 285.03 172.032 268.691 188.404C256.993 200.126 268.638 216.813 269.369 218.812C270.1 220.812 246.654 223.65 258.012 245.672C267.608 264.28 285.261 247.428 290.503 241.756C291.094 241.117 292.248 241.435 292.436 242.284C293.531 247.241 296.977 258.861 305.444 260.574C314.13 262.33 323.958 249.865 327.483 244.899C327.998 244.174 329.218 244.376 329.493 245.222C331.411 251.128 337.824 266.31 352.886 265.575C367.989 264.837 374.409 253.363 375.912 250.16C376.131 249.693 376.637 249.433 377.14 249.547C381.816 250.609 404.138 254.706 413.815 238.769C423.154 223.386 406.82 214.18 401.79 211.796C401.135 211.486 400.948 210.581 401.397 210.012C404.067 206.62 410.532 196.052 401.833 181.476C387.975 158.256 363.877 176.448 358.858 180.626C358.365 181.036 357.621 180.915 357.267 180.38C354.476 176.157 342.952 160.857 325.366 165.836C310.793 169.962 308.036 181.132 307.619 186.943C307.546 187.956 305.902 188.609 305.17 187.904Z" fill="white" stroke="white" stroke-width="3" stroke-linecap="round"/>
</svg>
