<svg width="194" height="183" viewBox="0 0 194 183" fill="none" xmlns="http://www.w3.org/2000/svg">
<path d="M108.156 155.045C108.156 155.045 83.4126 151.121 71.442 154.815C56.7122 159.361 41.8652 164.477 34.5786 167.031C32.187 167.869 29.6212 166.313 29.2652 163.804L14.6145 60.5465M108.156 155.045C108.156 155.045 122.817 137.772 136.639 130.11C148.087 123.764 164.775 119.681 172.359 118.044C174.557 117.57 176.001 115.415 175.544 113.213L153.849 8.52113M108.156 155.045C108.156 155.045 103.249 122.062 99.1743 101.713C95.0995 81.363 86.6937 50.3196 86.6937 50.3196M86.6937 50.3196C86.6937 50.3196 67.095 40.5829 52.2232 39.6997C39.7612 38.9596 22.416 45.166 15.6465 47.8201C13.9457 48.4869 12.9803 50.2483 13.2666 52.0526L14.6145 60.5465M86.6937 50.3196C86.6937 50.3196 95.229 30.8489 106.925 20.8117C117.672 11.5884 139.116 4.37208 147.867 1.68807C149.987 1.03772 152.186 2.29794 152.759 4.44064L153.849 8.52113M14.6145 60.5465L5.99084 59.4835C3.47481 59.1733 1.31215 61.2494 1.53546 63.7746C2.51417 74.842 5.10283 102.309 8.2433 121.246C11.4106 140.344 17.9241 167.55 20.5029 178.066C21.0761 180.404 23.5636 181.688 25.8221 180.857C34.0998 177.809 52.8286 171.246 66.6693 168.895C81.4911 166.376 104.212 166.42 110.539 166.486C111.626 166.498 112.658 166.078 113.438 165.322C117.6 161.29 131.666 148.01 142.941 141.48C156.806 133.45 179.2 128.212 188.327 126.306C190.545 125.843 191.999 123.677 191.52 121.463C189.234 110.904 182.987 81.9182 178.955 62.0629C175.309 44.1091 170.673 18.3719 168.791 7.80501C168.347 5.3166 165.739 3.86029 163.386 4.78277L153.849 8.52113" stroke="white" stroke-width="3"/>
</svg>
