<svg width="69" height="70" viewBox="0 0 69 70" fill="none" xmlns="http://www.w3.org/2000/svg">
<path d="M1.00028 20.8121C26.0505 29.9185 43.3074 44.2298 57.3291 66.2596" stroke="#363636" stroke-width="2" stroke-linecap="round"/>
<path d="M8.66654 14.0119C14.3095 10.4159 21.1847 4.41814 25.4523 2.43096C26.9125 1.75107 28.3193 2.79709 28.3433 4.40857C28.4233 9.76489 26.0096 18.5459 25.7448 24.7992" stroke="#363636" stroke-width="2" stroke-linecap="round"/>
<path d="M31.3368 27.6003C36.8067 25.4098 43.6961 21.2192 47.8255 20.0046C49.3789 19.5477 50.5589 20.8313 50.2408 22.422C49.2778 27.236 45.6935 34.5201 44.3681 39.9778" stroke="#363636" stroke-width="2" stroke-linecap="round"/>
<path d="M49.5517 43.8643C54.8763 42.9546 61.8321 40.4129 65.8594 40.0062C67.4486 39.8457 68.3598 41.3042 67.7389 42.7804C66.0122 46.8856 61.643 52.6023 59.5715 57.1534" stroke="#363636" stroke-width="2" stroke-linecap="round"/>
</svg>
