<svg width="60" height="60" viewBox="0 0 60 60" fill="none" xmlns="http://www.w3.org/2000/svg">
<path d="M19.6727 19.2601C19.264 18.8886 18.6316 18.9187 18.2601 19.3273C17.8886 19.736 17.9187 20.3684 18.3273 20.7399L19.6727 19.2601ZM40.3273 40.7399C40.736 41.1114 41.3684 41.0813 41.7399 40.6727C42.1114 40.264 42.0813 39.6316 41.6727 39.2601L40.3273 40.7399ZM41.6727 20.7399C42.0813 20.3684 42.1114 19.736 41.7399 19.3273C41.3684 18.9187 40.736 18.8886 40.3273 19.2601L41.6727 20.7399ZM18.3273 39.2601C17.9187 39.6316 17.8886 40.264 18.2601 40.6727C18.6316 41.0813 19.264 41.1114 19.6727 40.7399L18.3273 39.2601ZM18.3273 20.7399L29.3273 30.7399L30.6727 29.2601L19.6727 19.2601L18.3273 20.7399ZM29.3273 30.7399L40.3273 40.7399L41.6727 39.2601L30.6727 29.2601L29.3273 30.7399ZM30.6727 30.7399L41.6727 20.7399L40.3273 19.2601L29.3273 29.2601L30.6727 30.7399ZM40.3273 19.2601L18.3273 39.2601L19.6727 40.7399L41.6727 20.7399L40.3273 19.2601Z" fill="white"/>
</svg>
