<svg width="71" height="64" viewBox="0 0 71 64" fill="none" xmlns="http://www.w3.org/2000/svg">
<path fill-rule="evenodd" clip-rule="evenodd" d="M21.0319 1.05231L21.2017 0.0668334L20.8138 0L20.4844 0.215509L21.0319 1.05231ZM61.8421 1.05624L61.8626 1.0542L61.8751 1.05238C61.8987 1.04899 61.9325 1.04422 61.9755 1.03838C62.0613 1.02672 62.1838 1.01078 62.3337 0.99314C62.6326 0.957972 63.0452 0.91553 63.4972 0.887112C63.9465 0.858865 64.4505 0.843433 64.9279 0.866031C65.3845 0.887646 65.9041 0.946983 66.3378 1.11318C67.8662 1.6988 68.7563 2.77477 69.2635 4.04029C69.7497 5.25344 69.8895 6.65414 69.9744 7.9496C70.1621 10.8153 69.3561 13.953 68.93 15.2828C68.7832 15.7408 68.4943 16.2391 68.199 16.684C67.8921 17.1464 67.5294 17.6228 67.1811 18.0505C66.8321 18.4792 66.4877 18.8708 66.2122 19.1648C66.0754 19.3109 65.9487 19.4402 65.8428 19.5405C65.7908 19.5898 65.7343 19.6412 65.6783 19.6869L65.6749 19.6897C65.6487 19.7114 65.5244 19.8147 65.3583 19.8825C65.3583 19.8827 65.3403 19.891 65.2919 19.9154L65.2192 19.9523L65.2183 19.9527L65.1437 19.9906L65.0456 20.0402C64.8424 20.1421 64.5696 20.2747 64.2578 20.406C63.6612 20.6572 62.8146 20.951 61.9846 20.951H58.8808L58.8505 21.2177C58.7701 21.9266 58.6613 22.9012 58.5472 23.9642C58.3181 26.0993 58.0711 28.5622 57.9887 29.9566C57.7701 33.6521 57.9649 37.0946 58.1525 40.4114L58.1525 40.4117C58.2163 41.5391 58.2792 42.652 58.3248 43.7554C58.5027 48.0571 58.4122 52.1853 56.9269 56.1127C56.378 57.5639 55.8372 58.9272 55.0088 60.0517C54.1487 61.2193 53.0064 62.0981 51.3202 62.6733C50.6339 62.9075 49.6987 62.8865 49.0781 62.8465C48.7722 62.8268 48.4938 62.7984 48.2807 62.7732C48.1737 62.8498 48.0464 62.9363 47.9031 63.0251C47.4852 63.2843 46.8415 63.6204 46.1329 63.7131C41.9695 64.258 38.6454 63.9537 35.3645 63.4175C34.3029 63.244 33.2613 63.0497 32.2034 62.8524L32.2015 62.852L32.2011 62.8519C29.9624 62.4343 27.6511 62.0032 24.9265 61.7271C18.5682 61.0828 9.25461 60.2232 5.55705 59.8845C4.28255 59.7677 3.05442 59.1656 2.24935 58.0831C1.84411 57.5383 1.37472 56.8618 0.97404 56.1611C0.582642 55.4766 0.214104 54.6963 0.0728197 53.9574C-0.149342 52.7954 0.179197 51.5896 0.489485 50.7671C1.01266 49.3803 2.48498 48.8677 3.72396 49.1762L9.55255 50.6272L9.55443 50.6238C9.78229 50.2141 10.0924 49.6372 10.4204 48.9707C11.0868 47.6169 11.7874 45.9717 12.061 44.6193C12.6805 41.5572 12.3445 38.7909 11.7686 36.3602C11.4974 35.2154 11.176 34.1565 10.8747 33.1636L10.8152 32.9673C10.5034 31.9387 10.2073 30.9465 10.0576 30.065C9.78289 28.447 9.3868 26.0467 9.13126 23.6137C8.87845 21.2066 8.75097 18.6657 9.05797 16.8042C9.34825 15.0442 9.67295 13.738 10.1648 12.4707C10.6534 11.2119 11.2941 10.0257 12.1766 8.5072C13.5391 6.16254 15.6352 4.08706 17.3451 2.62063C18.2074 1.88115 18.9872 1.28331 19.5526 0.869473C19.8356 0.662362 20.0656 0.500826 20.2262 0.390156C20.3065 0.334809 20.3696 0.292144 20.4133 0.262825L20.4641 0.228923L20.4782 0.219625L20.4823 0.216915L20.4836 0.216048L20.4841 0.215738C20.4843 0.215616 20.4844 0.215509 21.0319 1.05231L21.2018 0.0668391L21.202 0.0668819L21.2032 0.0670786L21.208 0.0679125L21.2279 0.0713132L21.3072 0.0848134C21.3772 0.0967023 21.4812 0.114249 21.6161 0.136746C21.8858 0.18174 22.2791 0.246524 22.7715 0.325429C23.7566 0.483268 25.1379 0.697475 26.7216 0.922785C29.8962 1.37443 33.857 1.86671 37.0683 2.04315C41.892 2.30817 48.0861 2.06289 53.1003 1.74759C55.6018 1.59028 57.7995 1.41623 59.3715 1.28154C60.1574 1.2142 60.7866 1.15672 61.2189 1.11612C61.435 1.09582 61.6019 1.07974 61.7145 1.06877L61.8421 1.05624ZM59.5423 3.27423C59.7304 3.25811 59.9096 3.24255 60.0795 3.22764C59.8453 3.63055 59.5883 4.08883 59.3254 4.58598C58.3897 6.35495 57.3233 8.71616 57.0005 10.8493C56.8746 11.6813 56.8785 12.7551 56.9065 13.5731C56.9209 13.9921 56.9424 14.363 56.9603 14.6295C56.9692 14.7629 56.9773 14.8706 56.9832 14.9455L56.9893 15.0196V19.8929L56.9866 19.916L56.9598 20.1471C56.9367 20.3474 56.9035 20.6366 56.8632 20.9925C56.7825 21.7041 56.6732 22.6828 56.5586 23.7508C56.3304 25.8779 56.0779 28.3884 55.9921 29.8386C55.7662 33.6605 55.9705 37.268 56.1598 40.611L56.1598 40.6111C56.2224 41.7162 56.2833 42.7925 56.3265 43.838C56.5025 48.0939 56.3903 51.8777 55.0562 55.4052C54.4962 56.8859 54.04 57.9948 53.3986 58.8654C52.789 59.693 51.9886 60.3321 50.6744 60.7805C50.4095 60.8708 49.8465 60.8918 49.2066 60.8507C48.9156 60.8319 48.6501 60.8037 48.457 60.78C48.3996 60.7729 48.3489 60.7663 48.3063 60.7606C48.2464 60.729 48.1678 60.6864 48.0754 60.6336C47.8456 60.5022 47.5391 60.3126 47.2273 60.0783C46.5446 59.5655 46.0754 59.0158 45.9861 58.5533C45.8536 57.8669 45.5184 57.0322 45.0382 56.3577C44.594 55.7336 43.7998 54.9439 42.6949 55.0182C38.1853 55.3215 30.008 55.6675 24.1806 54.7705C21.3642 54.337 17.9287 53.3621 15.1681 52.4824C13.7941 52.0446 12.5992 51.6344 11.7482 51.3337C11.6603 51.3026 11.576 51.2727 11.4956 51.244C11.7053 50.8575 11.9545 50.3828 12.2149 49.8539C12.8967 48.4686 13.6943 46.6325 14.0213 45.0159C14.7181 41.572 14.3295 38.494 13.7147 35.8991C13.4287 34.6918 13.0906 33.578 12.7917 32.5931L12.7916 32.5929L12.7916 32.5928L12.7916 32.5927L12.7915 32.5926L12.7915 32.5925L12.7292 32.3871C12.4093 31.3319 12.154 30.4644 12.0294 29.7302C11.7555 28.1168 11.3687 25.77 11.1203 23.4048C10.8692 21.0135 10.7715 18.7048 11.0313 17.1297C11.3078 15.4532 11.6035 14.2914 12.0293 13.1944C12.4584 12.089 13.0325 11.0148 13.9058 9.51208C15.1021 7.45336 17.0014 5.55018 18.6471 4.1388C19.4627 3.43936 20.2008 2.8735 20.7339 2.48337C20.9455 2.32846 21.1244 2.20158 21.2624 2.10538L21.287 2.10949C21.5606 2.15512 21.9581 2.2206 22.4551 2.30024C23.4491 2.4595 24.8422 2.67554 26.4399 2.90285C29.6282 3.35643 33.6582 3.85881 36.9586 4.04014C41.9056 4.31193 48.197 4.05987 53.2258 3.74364C55.7457 3.58518 57.9588 3.40991 59.5423 3.27423ZM58.9893 18.951V17.0392C59.0182 17.5831 59.2232 18.0846 59.4472 18.4896C59.5353 18.649 59.632 18.8034 59.7328 18.951H58.9893ZM63.4816 18.5627C63.0861 18.7293 62.6864 18.8615 62.3362 18.9193C62.1752 18.7648 61.9704 18.5566 61.7666 18.3182C61.5465 18.0605 61.3437 17.7863 61.1974 17.5218C61.0459 17.2478 60.9911 17.0487 60.9861 16.9265C60.9606 16.2955 60.6777 15.549 60.3041 14.9885C60.112 14.7004 59.8532 14.3956 59.522 14.1749C59.354 14.0629 59.1508 13.963 58.9219 13.907C58.9158 13.7802 58.9102 13.6452 58.9053 13.5046C58.8778 12.7003 58.8817 11.7848 58.978 11.1486C59.2482 9.36334 60.1795 7.24855 61.0933 5.52113C61.5432 4.67055 61.9756 3.93818 62.2953 3.41898C62.4008 3.24762 62.4938 3.09982 62.5709 2.97903C62.8448 2.94685 63.2184 2.90859 63.6227 2.88317C64.0314 2.85747 64.4559 2.84593 64.8333 2.86379C65.2314 2.88264 65.4928 2.93119 65.6222 2.98078C66.5488 3.33579 67.0721 3.9486 67.407 4.78431C67.7629 5.67239 67.8939 6.78536 67.9787 8.08034C68.142 10.5727 67.4245 13.427 67.0254 14.6725C66.9659 14.8583 66.8041 15.169 66.5326 15.578C66.2728 15.9695 65.9526 16.3919 65.6303 16.7877C65.3088 17.1824 64.9949 17.539 64.7527 17.7974C64.6308 17.9276 64.5338 18.0257 64.4672 18.0887L64.4604 18.0951L64.4264 18.112L64.3983 18.1261L64.3912 18.1297L64.2991 18.1764C64.2548 18.199 64.2084 18.2226 64.149 18.2524C63.965 18.3447 63.736 18.4556 63.4816 18.5627ZM46.026 61.6774L46.0489 61.6945C45.9883 61.7106 45.9296 61.7227 45.8733 61.73C41.9681 62.2411 38.8527 61.961 35.6871 61.4436C34.7066 61.2834 33.7066 61.0971 32.6705 60.9041L32.6688 60.9037L32.6684 60.9037C30.3892 60.479 27.935 60.0217 25.1281 59.7373C18.7589 59.0919 9.43616 58.2314 5.73947 57.8928C4.96024 57.8214 4.27985 57.4619 3.85415 56.8896C3.47596 56.3811 3.05704 55.7748 2.71025 55.1683C2.35417 54.5456 2.11606 53.9941 2.03724 53.5818C1.92083 52.9729 2.08856 52.1946 2.36075 51.473C2.4557 51.2214 2.78046 51.0023 3.2408 51.1169L9.7478 52.7369L9.78962 52.7525C9.8525 52.7758 9.94486 52.81 10.0641 52.8537C10.3026 52.941 10.6488 53.0663 11.0819 53.2194C11.9479 53.5254 13.1629 53.9426 14.5609 54.388C17.3441 55.2748 20.9005 56.2892 23.8764 56.7473C29.9459 57.6815 38.3235 57.3167 42.8291 57.0137C42.845 57.0126 43.0654 57.035 43.4089 57.5175C43.7165 57.9496 43.942 58.516 44.0224 58.9325C44.2641 60.1846 45.2932 61.1269 46.026 61.6774ZM18.8851 14.9361C23.0637 13.9924 35.5587 13.3583 51.3347 17.362C51.8705 17.498 52.4116 17.1738 52.5434 16.6379C52.6752 16.1021 52.3477 15.5574 51.8119 15.4215C35.8041 11.359 22.983 11.9551 18.4322 12.9829C17.8948 13.1043 17.5606 13.6399 17.6857 14.1792C17.8107 14.7186 18.3477 15.0574 18.8851 14.9361ZM51.335 41.2309C35.5589 37.2286 23.0635 37.8638 18.8848 38.8078C18.3474 38.9293 17.8104 38.5905 17.6854 38.0511C17.5604 37.5118 17.8947 36.9762 18.4321 36.8548C22.983 35.8266 35.8045 35.2293 51.8123 39.2904C52.3481 39.4263 52.6756 39.9709 52.5437 40.5068C52.4119 41.0426 51.8707 41.3668 51.335 41.2309ZM20.0355 21.9203C23.5773 21.2553 34.1942 20.1133 47.6817 22.6867C48.2245 22.7902 48.7463 22.4342 48.8473 21.8914C48.9483 21.3487 48.5903 20.8247 48.0475 20.7212C34.2849 18.0953 23.4141 19.2485 19.6584 19.9536C19.1163 20.0554 18.7613 20.5782 18.8654 21.1212C18.9695 21.6643 19.4934 22.0221 20.0355 21.9203ZM46.6827 46.5587C33.1952 43.9853 22.5782 45.1274 19.0365 45.7924C18.4944 45.8941 17.9705 45.5364 17.8664 44.9933C17.7622 44.4502 18.1173 43.9275 18.6594 43.8257C22.4151 43.1206 33.2858 41.9674 47.0485 44.5933C47.5912 44.6968 47.9493 45.2207 47.8483 45.7635C47.7473 46.3062 47.2254 46.6623 46.6827 46.5587ZM18.9383 29.8812C22.8823 29.3533 34.6588 28.6306 49.5573 31.7479C50.0981 31.861 50.6253 31.5142 50.7348 30.9731C50.8443 30.4321 50.4946 29.9018 49.9537 29.7886C34.8082 26.6197 22.8022 27.3428 18.661 27.8971C18.1145 27.9703 17.7336 28.4737 17.8101 29.0216C17.8867 29.5695 18.3918 29.9543 18.9383 29.8812Z" fill="white"/>
</svg>
