<svg width="69" height="110" viewBox="0 0 69 110" fill="none" xmlns="http://www.w3.org/2000/svg">
<path d="M17.3243 42.638L14.2018 52.911C13.7156 54.5107 15.2902 55.9654 16.8465 55.3542L27.2703 51.2603M17.3243 42.638C17.3243 42.638 21.7534 43.9214 23.8108 45.6558C25.8616 47.3846 27.2703 51.2603 27.2703 51.2603M17.3243 42.638L32.4595 28.8422L46.2973 14.1842M46.2973 14.1842C46.2973 14.1842 51.0454 8.90236 52.7838 8.14855C54.5221 7.39473 55.4133 9.63578 58.4054 12.0286C59.7523 13.1057 60.4151 15.1926 60.7309 16.705C60.9663 17.8323 60.5383 18.9661 59.7089 19.765C58.2301 21.1891 55.8901 23.3437 54.9459 23.6688M46.2973 14.1842C46.2973 14.1842 49.7403 15.8848 51.4865 17.6331C53.4202 19.5692 54.9459 23.6688 54.9459 23.6688M54.9459 23.6688L41.1081 36.6023L27.2703 51.2603" stroke="#363636" stroke-linecap="round"/>
<path d="M9.72115 63.7661C17.5213 66.1035 61.855 81.0693 64.8706 83.8389C68.6401 87.301 19.7737 73.5081 16.8918 73.9641C14.5863 74.3288 53.0089 91.0435 55.2109 92.1793C57.4128 93.3152 25.9087 87.0835 22.5668 97.3709" stroke="#FD83BE" stroke-width="2" stroke-linecap="round"/>
<path d="M11.7346 62.7709C19.5743 64.9718 64.1625 79.1615 67.2259 81.8781C71.0553 85.2738 21.9556 72.336 19.0821 72.8421C16.7833 73.247 55.4918 89.2886 57.7132 90.3859C59.9347 91.4831 28.3266 85.8022 25.1647 96.1464" stroke="#363636" stroke-linecap="round"/>
</svg>
