<svg width="66" height="78" viewBox="0 0 66 78" fill="none" xmlns="http://www.w3.org/2000/svg">
<path class="path-bg" d="M23.5325 49.9248C27.6984 53.7618 30.6831 66.335 31.951 72.5985C32.1533 73.5978 33.5892 73.7291 33.9597 72.7792C36.0387 67.4486 39.9777 57.4738 41.5197 54.4143C43.6303 50.2267 53.9985 45.6466 60.2311 43.207C61.9233 42.5446 62.0419 40.057 60.4177 39.2418C55.2494 36.6479 47.2492 32.2631 44.8087 28.8693C41.754 24.6216 39.313 11.9696 38.1873 5.23034C38.012 4.18098 36.4418 4.04156 36.0802 5.0421C33.8077 11.3305 29.1899 22.9099 24.8789 26.3848C21.0648 29.459 12.0964 31.5333 6.31486 32.6049C4.49723 32.9418 3.93998 35.4061 5.46506 36.4508C10.7961 40.1028 19.5421 46.2494 23.5325 49.9248Z" fill="#BC68DA"/>
<path d="M36.523 13.9342C34.6066 22.8652 24.9285 40.7272 1.54785 40.7272" stroke="#363636" stroke-width="3" stroke-linecap="round"/>
<path d="M36.5226 76.4564C37.8915 67.8562 44.8044 50.6558 61.5049 50.6558" stroke="#363636" stroke-width="3" stroke-linecap="round"/>
<path d="M36.5226 13.9342C37.8915 26.173 44.8044 50.6505 61.5049 50.6505" stroke="#363636" stroke-width="3" stroke-linecap="round"/>
<path d="M36.523 76.4564C34.6066 64.5484 24.9285 40.7325 1.54785 40.7325" stroke="#363636" stroke-width="3" stroke-linecap="round"/>
</svg>
