<svg width="139" height="145" viewBox="0 0 139 145" fill="none" xmlns="http://www.w3.org/2000/svg">
<path d="M43.6844 23.207C49.6836 44.1656 55.6093 88.488 31.3178 98.1081" stroke="#363636" stroke-width="3" stroke-linecap="round"/>
<path d="M84.5691 126.904C80.4232 109.879 78.9828 73.1138 106.389 62.2603" stroke="#363636" stroke-width="3" stroke-linecap="round"/>
<path d="M43.5154 21.766C53.1375 39.495 79.2331 72.2395 106.639 61.386" stroke="#363636" stroke-width="3" stroke-linecap="round"/>
<path d="M84.7381 126.342C76.9693 112.546 55.3589 87.3592 31.0674 96.9794" stroke="#363636" stroke-width="3" stroke-linecap="round"/>
<path d="M31.8004 62.8498C31.8004 62.8498 21.6602 51.5972 14.3564 50.6145" stroke="#363636" stroke-width="3" stroke-linecap="round"/>
<path d="M28.4805 69.3797C28.4805 69.3797 20.718 65.1845 18.3605 66.6361" stroke="#363636" stroke-width="3" stroke-linecap="round"/>
<path d="M91.0897 38.0499C91.0897 38.0499 101.293 26.8951 101.541 19.5454" stroke="#363636" stroke-width="3" stroke-linecap="round"/>
<path d="M85.1424 35.2509C85.1424 35.2509 86.8079 26.1144 84.5052 24.5574" stroke="#363636" stroke-width="3" stroke-linecap="round"/>
<path d="M51.0963 112.581C51.0963 112.581 39.5668 122.444 38.3838 129.72" stroke="#363636" stroke-width="3" stroke-linecap="round"/>
<path d="M56.9366 115.917C56.9366 115.917 54.5434 124.027 56.4223 125.709" stroke="#363636" stroke-width="3" stroke-linecap="round"/>
<path d="M97.8366 98.4436C97.8366 98.4436 105.567 111.368 112.536 113.677" stroke="#363636" stroke-width="3" stroke-linecap="round"/>
<path d="M101.678 94.2453C101.678 94.2453 106.362 97.6376 107.532 96.6536" stroke="#363636" stroke-width="3" stroke-linecap="round"/>
</svg>
