<svg width="240" height="146" viewBox="0 0 240 146" fill="none" xmlns="http://www.w3.org/2000/svg">
<g clip-path="url(#clip0_172_91)">
<path d="M90.6542 126.934C90.197 126.619 89.645 126.47 89.0905 126.512H86.7754V129.82H89.0905C89.6436 129.865 90.1955 129.72 90.6542 129.409C90.8268 129.26 90.9634 129.074 91.0537 128.865C91.1439 128.656 91.1855 128.429 91.1754 128.202C91.1992 127.964 91.1641 127.725 91.0732 127.504C90.9824 127.283 90.8385 127.087 90.6542 126.934Z" fill="#BC68DA"/>
<path d="M139.599 127.249L137.732 131.667H141.502L139.623 127.249H139.599Z" fill="#BC68DA"/>
<path d="M158.242 91.6455L153.588 102.716H163.03L158.339 91.6455H158.242Z" fill="#BC68DA"/>
<path d="M232.036 83.1098C232.158 82.6752 232.279 82.2406 232.388 81.7939C234.111 81.3075 235.615 80.2466 236.647 78.7884C237.679 77.3303 238.177 75.5634 238.057 73.7834C237.938 72.0033 237.209 70.318 235.992 69.0094C234.774 67.7007 233.143 66.8481 231.37 66.5941C228.4 59.8574 222.049 55.1248 214.485 53.0362C212.611 52.5193 210.67 52.2873 208.727 52.3481C212 50.4526 214.594 47.7966 215.139 45.4544C215.624 43.3537 214.327 42.0619 211.976 41.8326C212.454 41.016 212.658 40.0684 212.558 39.1282C212.073 36.4239 207.612 36.3394 202.57 38.9471C198.824 40.8909 195.818 43.7763 194.739 46.1909C194.253 46.1283 193.763 46.096 193.273 46.0943C187.067 46.0943 179.939 51.8168 179.867 57.2738C179.867 61.7891 184.715 64.6745 189.842 65.5679C189.337 66.6245 188.892 67.7087 188.509 68.8155H178.073C169.503 55.2576 161.418 36.6654 159.782 32.8262C165.236 35.4339 168.521 37.1603 172.303 35.9893C180.788 33.3453 184.133 22.8298 182.655 21.9123C174.242 16.7089 168.642 18.1093 164.303 19.3166C165.554 18.1935 166.65 16.9107 167.564 15.5016C169.003 13.2582 169.914 10.7201 170.23 8.07673C170.289 7.6345 170.203 7.18517 169.984 6.79602C169.765 6.40687 169.425 6.09883 169.016 5.91803C168.606 5.73723 168.149 5.6934 167.712 5.79309C167.276 5.89278 166.883 6.13063 166.594 6.47103L166.509 6.56762C165.184 8.13752 163.711 9.5768 162.109 10.8656C160.682 11.99 159.092 12.8936 157.394 13.5458C155.72 14.1694 153.972 14.5752 152.194 14.753C150.719 14.8825 149.237 14.9148 147.758 14.8496C145.182 14.0327 142.53 13.4786 139.842 13.1956C137.502 12.9102 135.14 12.8495 132.788 13.0145C131.227 12.597 129.69 12.0973 128.182 11.5175C126.676 10.94 125.25 10.1732 123.939 9.23573C122.593 8.23855 121.372 7.08329 120.303 5.79495C119.091 4.41864 118.012 2.7888 116.667 0.965789L116.582 0.84506C116.332 0.503074 115.986 0.242671 115.587 0.0968345C115.188 -0.0490022 114.755 -0.0737108 114.342 0.0258384C113.93 0.125388 113.556 0.344716 113.268 0.656041C112.981 0.967366 112.793 1.35668 112.727 1.77467C112.325 4.31741 112.55 6.91942 113.382 9.35645C114.107 11.4939 115.261 13.4617 116.776 15.1394C113.434 13.8502 109.874 13.2188 106.291 13.2801C104.836 13.2801 98.291 13.8355 96.8243 15.2239C95.9758 16.0328 97.0425 25.2806 101.515 28.8059C108.194 34.0697 117.527 28.3713 117.927 28.1298C117.842 28.4075 114.836 37.3414 113.418 43.3537C112.24 47.9482 111.891 52.7147 112.388 57.4307C112.521 57.974 112.667 58.5052 112.849 59.0364C113.135 59.9748 113.5 60.8876 113.939 61.7649C114.281 62.5374 114.687 63.2804 115.152 63.9863C117.126 67.0525 119.993 69.4451 123.37 70.8437C126.95 72.1134 130.755 72.6313 134.546 72.3649C136.498 72.2986 138.439 72.0398 140.339 71.5923C142.235 71.1636 144.062 70.4771 145.77 69.5519C145.978 69.4475 146.217 69.4243 146.442 69.4868C146.666 69.5494 146.859 69.6932 146.982 69.89C147.054 70.0147 147.092 70.1564 147.091 70.3005C147.093 70.4337 147.063 70.5655 147.004 70.6851C146.945 70.8047 146.859 70.9087 146.752 70.9886C143.236 73.4654 139.143 75.0034 134.861 75.4556C133.327 75.6748 131.78 75.7837 130.23 75.7816C129.636 75.7816 129.018 75.7816 128.449 75.7816C126.235 75.707 124.042 75.3375 121.927 74.6829C118.718 73.5376 115.816 71.675 113.442 69.238C113.346 69.1294 113.236 69.0328 113.152 68.9241H93.0546C92.5148 67.9095 92.1075 66.8303 91.8425 65.7128C93.8364 64.8449 95.594 63.5165 96.9698 61.8374C100.921 58.2351 103.727 53.5599 105.042 48.3881C105.042 48.2916 105.042 48.2071 105.042 48.1105L105.115 47.7362C105.203 47.2013 105.247 46.6604 105.249 46.1184C105.253 45.3485 105.18 44.58 105.03 43.8246L107.212 40.4321C107.238 40.396 107.253 40.3526 107.254 40.308C107.254 40.2634 107.241 40.2196 107.216 40.1827C107.191 40.1458 107.155 40.1175 107.113 40.1016C107.071 40.0858 107.025 40.0831 106.982 40.0941L103.733 40.6615C102.182 38.3918 99.5031 37.1603 96.0001 37.1603C92.1334 37.1603 89.4425 40.5891 86.7152 44.2592C85.2607 44.1385 83.8182 44.1023 82.4485 44.1023C74.8364 44.1023 70.8728 44.4524 70.8728 52.0221C70.8728 58.131 76.0122 63.938 81.9879 65.9663C82.2316 66.9563 82.5435 67.9285 82.9213 68.8759H56.6788C61.1759 64.8601 64.5221 59.7274 66.3758 54.002C66.994 52.179 66.6182 51.4788 64.7758 50.5733C58.5334 47.5068 46.8122 45.0439 36.5576 49.4506C36.2304 49.5834 35.9152 49.7524 35.6001 49.9093C34.2304 49.5834 31.4546 49.3781 25.9031 50.187C22.6425 50.7061 19.2849 51.9134 18.1819 53.5795C17.3334 54.7868 18.0849 55.4749 19.394 56.4891L24.4001 60.1834C22.0346 63.5127 19.9546 67.0343 18.1819 70.7109C12.8788 71.3624 7.80878 73.2665 3.394 76.2645C3.20974 76.4021 3.06643 76.587 2.97934 76.7993C2.89226 77.0117 2.86466 77.2436 2.8995 77.4704C2.93433 77.6971 3.03029 77.9102 3.17714 78.0869C3.324 78.2636 3.51625 78.3974 3.73339 78.4738L10.1092 80.6107C3.59985 87.4967 -0.017176 96.6026 6.13274e-05 106.06V107.932C6.13274e-05 117.794 3.93338 127.252 10.9347 134.225C17.9361 141.199 27.432 145.116 37.3334 145.116H204.339C213.797 145.116 222.868 141.374 229.555 134.713C236.243 128.052 240 119.018 240 109.598V106.06C240.008 97.7366 237.203 89.6523 232.036 83.1098ZM129.249 42.9433C129.125 42.9915 128.993 43.0161 128.861 43.0157C128.639 43.0172 128.424 42.9402 128.255 42.7984C126.884 41.6109 125.202 40.8362 123.406 40.5649C122.572 40.4187 121.719 40.4187 120.885 40.5649C120.093 40.7131 119.36 41.0862 118.776 41.6394C118.599 41.8149 118.359 41.9133 118.109 41.9133C117.859 41.9133 117.62 41.8149 117.442 41.6394C117.323 41.515 117.24 41.36 117.204 41.1916C117.167 41.0232 117.179 40.848 117.236 40.6856C117.492 40.058 117.88 39.492 118.373 39.0256C118.867 38.5592 119.454 38.2032 120.097 37.9813C121.285 37.5253 122.572 37.3879 123.83 37.5829C125.064 37.7679 126.24 38.2258 127.273 38.923C128.331 39.5927 129.173 40.5528 129.697 41.6877C129.75 41.7994 129.781 41.9206 129.788 42.0442C129.794 42.1678 129.776 42.2915 129.734 42.4081C129.692 42.5247 129.628 42.632 129.545 42.7238C129.462 42.8157 129.361 42.8902 129.249 42.9433ZM98.9455 40.8667C99.293 40.8285 99.644 40.8937 99.9543 41.0539C100.265 41.2142 100.52 41.4624 100.689 41.7673C100.858 42.0721 100.933 42.42 100.903 42.7669C100.874 43.1139 100.742 43.4444 100.524 43.7167C100.306 43.9891 100.012 44.1911 99.6796 44.2973C99.3467 44.4036 98.9897 44.4092 98.6535 44.3136C98.3174 44.2179 98.0173 44.0252 97.791 43.7599C97.5647 43.4945 97.4223 43.1684 97.3819 42.8225C97.3309 42.3551 97.4681 41.8867 97.7636 41.52C98.059 41.1533 98.4885 40.9183 98.9576 40.8667H98.9455ZM146.909 47.4102C146.739 47.3999 146.575 47.344 146.434 47.2483C146.293 47.1527 146.181 47.0209 146.109 46.867C145.776 46.1351 145.242 45.5117 144.57 45.0681C143.866 44.6035 143.087 44.2644 142.267 44.066C140.522 43.6291 138.689 43.6961 136.982 44.2592C136.776 44.3329 136.551 44.3334 136.345 44.2605C136.139 44.1876 135.965 44.0459 135.852 43.8595C135.739 43.673 135.695 43.4534 135.726 43.2379C135.757 43.0224 135.863 42.8244 136.024 42.6777C136.937 41.8414 138.066 41.2767 139.285 41.0478C140.492 40.8257 141.732 40.8669 142.921 41.1685C144.159 41.4792 145.294 42.103 146.218 42.9795C146.724 43.4375 147.128 43.997 147.401 44.6212C147.675 45.2454 147.813 45.9203 147.806 46.6014C147.776 46.8174 147.671 47.0162 147.509 47.1637C147.348 47.3113 147.14 47.3984 146.921 47.4102H146.909ZM86.4486 66.7269C87.1304 66.7265 87.8112 66.674 88.4849 66.5699C88.6967 67.3549 88.9599 68.1252 89.2728 68.8759H86.8486C86.4555 68.1818 86.1346 67.4496 85.891 66.6907L86.4486 66.7269ZM54.0122 53.338C54.081 52.9545 54.2626 52.5999 54.5339 52.3193C54.8053 52.0387 55.1542 51.8446 55.5364 51.7616C55.9186 51.6786 56.3169 51.7105 56.6809 51.8532C57.0448 51.996 57.3581 52.2431 57.5809 52.5633C57.8038 52.8835 57.9262 53.2624 57.9326 53.652C57.939 54.0415 57.8292 54.4242 57.6171 54.7516C57.4049 55.0789 57.1 55.3362 56.7409 55.4907C56.3819 55.6453 55.9848 55.6902 55.6001 55.6198C55.3449 55.5747 55.1013 55.4798 54.8832 55.3405C54.665 55.2012 54.4767 55.0203 54.3291 54.8082C54.1815 54.5961 54.0775 54.357 54.0231 54.1047C53.9687 53.8524 53.965 53.5918 54.0122 53.338ZM59.4788 87.8303L47.6849 113.63C47.3099 114.591 46.6715 115.428 45.8425 116.045C44.9597 116.599 43.9271 116.869 42.8849 116.817C41.8313 116.868 40.7872 116.599 39.891 116.045C39.0454 115.427 38.3835 114.592 37.9758 113.63L26.2425 87.8303C25.7518 86.8961 25.5815 85.8276 25.7576 84.7879C25.9178 83.9349 26.4046 83.1773 27.1152 82.6752C27.9039 82.1546 28.8363 81.8929 29.7819 81.9267C30.8486 81.8479 31.9079 82.1567 32.7637 82.7959C33.5207 83.5163 34.1085 84.3944 34.4849 85.3674L43.0304 105.034L51.5152 85.3192C51.9096 84.3382 52.5328 83.465 53.3334 82.7718C54.159 82.1668 55.1707 81.8679 56.194 81.9267C57.0973 81.8986 57.9855 82.1611 58.7273 82.6752C59.4106 83.1903 59.8703 83.9462 60.0122 84.7879C60.1515 85.8325 59.9654 86.8946 59.4788 87.8303ZM69.1758 115.248C68.7542 114.791 68.4295 114.254 68.2212 113.669C68.0129 113.084 67.9253 112.463 67.9637 111.843V86.9249C67.9264 86.3036 68.0145 85.6812 68.2227 85.0944C68.4309 84.5076 68.755 83.9682 69.1758 83.5082C69.6436 83.0868 70.1913 82.7629 70.7866 82.5556C71.382 82.3482 72.013 82.2616 72.6425 82.3009H89.091C90.0486 82.2335 90.9941 82.546 91.7213 83.1702C92.0317 83.5142 92.2691 83.9172 92.4191 84.355C92.5691 84.7928 92.6286 85.2563 92.594 85.7176C92.652 86.6591 92.3389 87.586 91.7213 88.3012C91.3661 88.6191 90.9499 88.8622 90.4978 89.0157C90.0458 89.1693 89.5672 89.2301 89.091 89.1945H76.5334V95.6656H88.0243C88.9737 95.6047 89.9093 95.9167 90.6304 96.5349C91.2115 97.2647 91.5277 98.1689 91.5277 99.1004C91.5277 100.032 91.2115 100.936 90.6304 101.666C89.9093 102.284 88.9737 102.596 88.0243 102.535H76.5334V109.537H89.091C89.5672 109.502 90.0458 109.563 90.4978 109.716C90.9499 109.87 91.3661 110.113 91.7213 110.431C92.2874 111.16 92.5946 112.056 92.5946 112.978C92.5946 113.9 92.2874 114.796 91.7213 115.526C90.9941 116.15 90.0486 116.462 89.091 116.395H72.6425C72.017 116.445 71.3877 116.369 70.7921 116.172C70.1966 115.975 69.6469 115.661 69.1758 115.248ZM93.4183 136.122C93.1757 136.296 92.8803 136.381 92.5819 136.363C92.2665 136.379 91.9538 136.299 91.6849 136.134C91.4353 135.941 91.2288 135.699 91.0789 135.422L89.4789 132.476C89.3497 132.207 89.1372 131.987 88.8728 131.848C88.5972 131.731 88.2997 131.673 88.0001 131.679H86.7879V135.035C86.8114 135.391 86.694 135.742 86.4607 136.013C86.3362 136.137 86.186 136.233 86.0207 136.294C85.8553 136.354 85.6787 136.378 85.5031 136.363C85.3256 136.38 85.1466 136.357 84.979 136.296C84.8114 136.236 84.6592 136.139 84.5334 136.013C84.3001 135.742 84.1826 135.391 84.2061 135.035V125.812C84.1934 125.634 84.2169 125.456 84.2753 125.288C84.3336 125.12 84.4255 124.965 84.5455 124.834C84.8137 124.603 85.1617 124.486 85.5152 124.508H89.5758C90.6682 124.436 91.7483 124.772 92.6061 125.449C92.9691 125.784 93.2531 126.195 93.4375 126.652C93.622 127.109 93.7023 127.602 93.6728 128.093C93.6888 128.758 93.521 129.413 93.1879 129.989C92.8577 130.523 92.3714 130.945 91.794 131.196C91.5554 131.296 91.3078 131.373 91.0546 131.426C91.2518 131.483 91.4396 131.568 91.6122 131.679C91.9956 131.946 92.3077 132.303 92.5213 132.717L93.5637 134.625C93.7075 134.875 93.7827 135.158 93.7819 135.446C93.7798 135.574 93.7506 135.701 93.6964 135.817C93.6421 135.934 93.5638 136.037 93.4667 136.122H93.4183ZM105.855 131.293C105.884 132.262 105.689 133.224 105.285 134.106C104.918 134.845 104.318 135.443 103.576 135.808C102.704 136.212 101.749 136.407 100.788 136.375C100.04 136.389 99.2941 136.279 98.5819 136.049C97.9791 135.857 97.428 135.531 96.9698 135.096C96.5218 134.653 96.1854 134.111 95.9879 133.514C95.762 132.796 95.6556 132.045 95.6728 131.293V125.643C95.6602 125.47 95.685 125.296 95.7457 125.134C95.8064 124.971 95.9016 124.824 96.0246 124.701C96.1477 124.579 96.2958 124.484 96.4589 124.424C96.622 124.363 96.7962 124.338 96.9698 124.351C97.1446 124.34 97.3197 124.366 97.4832 124.429C97.6466 124.492 97.7945 124.589 97.9166 124.714C98.0387 124.839 98.1322 124.989 98.1905 125.153C98.2489 125.318 98.2707 125.493 98.2546 125.667V131.329C98.197 132.1 98.4256 132.864 98.897 133.478C99.1411 133.727 99.4365 133.921 99.7629 134.046C100.089 134.171 100.439 134.225 100.788 134.202C101.135 134.223 101.482 134.169 101.806 134.044C102.131 133.919 102.424 133.726 102.667 133.478C103.138 132.864 103.367 132.1 103.309 131.329V125.667C103.292 125.489 103.315 125.309 103.376 125.141C103.437 124.973 103.535 124.82 103.663 124.694C103.79 124.568 103.944 124.472 104.114 124.413C104.283 124.353 104.464 124.332 104.642 124.351C104.813 124.338 104.985 124.362 105.146 124.42C105.306 124.479 105.453 124.57 105.576 124.689C105.693 124.822 105.782 124.977 105.839 125.145C105.895 125.313 105.917 125.49 105.903 125.667L105.855 131.293ZM116.764 134.226C116.547 134.7 116.218 135.114 115.806 135.434C115.347 135.773 114.829 136.027 114.279 136.182C113.635 136.359 112.97 136.444 112.303 136.436C111.351 136.43 110.405 136.292 109.491 136.025C109.066 135.91 108.659 135.74 108.279 135.518C108.052 135.408 107.869 135.225 107.758 134.999C107.661 134.796 107.623 134.57 107.649 134.347C107.669 134.128 107.758 133.921 107.903 133.756C108.036 133.585 108.225 133.465 108.436 133.418C108.687 133.376 108.944 133.423 109.164 133.55C109.63 133.809 110.133 133.996 110.655 134.106C111.184 134.226 111.724 134.287 112.267 134.287C112.869 134.339 113.473 134.208 114 133.913C114.157 133.813 114.285 133.675 114.374 133.513C114.463 133.35 114.51 133.168 114.509 132.983C114.515 132.835 114.485 132.687 114.422 132.553C114.358 132.418 114.264 132.301 114.146 132.21C113.753 131.97 113.316 131.81 112.861 131.739L110.982 131.341C110.068 131.199 109.22 130.777 108.558 130.134C108.293 129.851 108.089 129.518 107.955 129.155C107.822 128.793 107.763 128.407 107.782 128.021C107.772 127.498 107.888 126.981 108.121 126.512C108.361 126.042 108.7 125.63 109.115 125.305C109.559 124.952 110.071 124.694 110.618 124.544C111.306 124.364 112.018 124.299 112.727 124.351C113.344 124.35 113.958 124.423 114.558 124.568C115.119 124.704 115.655 124.928 116.146 125.232C116.353 125.344 116.515 125.523 116.606 125.739C116.686 125.93 116.715 126.138 116.691 126.343C116.664 126.546 116.575 126.736 116.436 126.887C116.298 127.038 116.116 127.143 115.915 127.188C115.652 127.224 115.383 127.174 115.152 127.043C114.77 126.846 114.362 126.704 113.939 126.621C113.541 126.537 113.135 126.493 112.727 126.488C112.316 126.476 111.905 126.537 111.515 126.669C111.223 126.772 110.963 126.951 110.764 127.188C110.594 127.405 110.505 127.674 110.509 127.949C110.506 128.097 110.535 128.245 110.596 128.38C110.657 128.516 110.747 128.637 110.861 128.733C111.223 128.984 111.637 129.149 112.073 129.216L113.964 129.615C114.861 129.755 115.701 130.144 116.388 130.737C116.656 131.001 116.865 131.318 117.003 131.667C117.141 132.017 117.204 132.391 117.188 132.766C117.198 133.279 117.086 133.788 116.861 134.251L116.764 134.226ZM127.455 134.226C127.238 134.7 126.909 135.114 126.497 135.434C126.038 135.773 125.52 136.027 124.97 136.182C124.326 136.359 123.661 136.444 122.994 136.436C122.042 136.43 121.095 136.292 120.182 136.025C119.757 135.91 119.35 135.74 118.97 135.518C118.743 135.408 118.56 135.225 118.449 134.999C118.352 134.796 118.314 134.57 118.339 134.347C118.36 134.128 118.449 133.921 118.594 133.756C118.727 133.585 118.915 133.465 119.127 133.418C119.378 133.376 119.635 133.423 119.855 133.55C120.321 133.809 120.824 133.996 121.346 134.106C121.874 134.226 122.415 134.287 122.958 134.287C123.56 134.339 124.164 134.208 124.691 133.913C124.848 133.813 124.976 133.675 125.065 133.513C125.154 133.35 125.201 133.168 125.2 132.983C125.206 132.835 125.176 132.687 125.113 132.553C125.049 132.418 124.955 132.301 124.836 132.21C124.444 131.97 124.007 131.81 123.552 131.739L121.673 131.341C120.759 131.199 119.911 130.777 119.249 130.134C118.984 129.851 118.78 129.518 118.646 129.155C118.513 128.793 118.454 128.407 118.473 128.021C118.463 127.498 118.579 126.981 118.812 126.512C119.051 126.042 119.391 125.63 119.806 125.305C120.252 124.955 120.763 124.696 121.309 124.544C121.934 124.359 122.584 124.269 123.236 124.278C123.853 124.278 124.468 124.351 125.067 124.496C125.628 124.631 126.164 124.855 126.655 125.16C126.862 125.271 127.024 125.45 127.115 125.667C127.195 125.857 127.224 126.065 127.2 126.27C127.173 126.473 127.084 126.663 126.945 126.814C126.807 126.965 126.625 127.07 126.424 127.116C126.161 127.152 125.892 127.101 125.661 126.971C125.279 126.774 124.871 126.631 124.449 126.548C124.05 126.464 123.644 126.42 123.236 126.415C122.825 126.404 122.414 126.465 122.024 126.596C121.732 126.7 121.473 126.879 121.273 127.116C121.103 127.333 121.014 127.601 121.018 127.876C121.015 128.025 121.044 128.172 121.105 128.308C121.166 128.444 121.256 128.564 121.37 128.661C121.732 128.912 122.146 129.077 122.582 129.144L124.473 129.542C125.371 129.683 126.211 130.072 126.897 130.665C127.165 130.929 127.375 131.246 127.512 131.595C127.65 131.944 127.713 132.318 127.697 132.693C127.776 133.216 127.726 133.751 127.552 134.251L127.455 134.226ZM132.061 135.011C132.084 135.367 131.967 135.718 131.733 135.989C131.609 136.113 131.459 136.209 131.293 136.269C131.128 136.33 130.951 136.354 130.776 136.339C130.598 136.355 130.419 136.333 130.252 136.272C130.084 136.212 129.932 136.115 129.806 135.989C129.573 135.718 129.455 135.367 129.479 135.011V125.679C129.46 125.323 129.577 124.974 129.806 124.701C130.075 124.474 130.417 124.349 130.77 124.349C131.123 124.349 131.464 124.474 131.733 124.701C131.962 124.974 132.079 125.323 132.061 125.679V135.011ZM132.958 111.385C132.971 112.228 132.762 113.061 132.352 113.799C131.916 114.502 131.233 115.018 130.436 115.248C128.824 115.786 127.17 116.19 125.491 116.455C123.724 116.744 121.936 116.889 120.146 116.89C116.742 116.997 113.364 116.276 110.303 114.789C107.665 113.441 105.491 111.339 104.061 108.753C102.59 105.937 101.857 102.798 101.927 99.6255C101.893 97.1244 102.329 94.6389 103.212 92.2973C104.043 90.1466 105.344 88.2072 107.022 86.6201C108.699 85.033 110.71 83.838 112.909 83.1219C115.479 82.2672 118.177 81.8588 120.885 81.9146C122.548 81.9203 124.207 82.0739 125.842 82.3734C127.568 82.7016 129.234 83.2834 130.788 84.0998C131.546 84.4033 132.161 84.9812 132.509 85.7176C132.811 86.3997 132.912 87.1535 132.8 87.8907C132.692 88.6375 132.41 89.3487 131.976 89.9672C131.548 90.5656 130.921 90.9934 130.206 91.1745C129.355 91.3752 128.46 91.2638 127.685 90.8606C126.676 90.3997 125.619 90.0515 124.533 89.8223C123.338 89.5738 122.119 89.4524 120.897 89.4602C119.022 89.4109 117.165 89.8258 115.491 90.6674C114.067 91.4263 112.934 92.6313 112.267 94.0962C111.506 95.8511 111.142 97.7511 111.2 99.6618C111.2 102.946 112.008 105.425 113.624 107.099C115.212 108.656 117.576 109.525 120.776 109.525C121.845 109.516 122.911 109.419 123.964 109.236C124.558 109.139 125.176 109.006 125.782 108.861V103.489H122.424C121.502 103.547 120.592 103.254 119.879 102.668C119.572 102.365 119.334 102 119.179 101.599C119.025 101.197 118.958 100.767 118.982 100.338C118.956 99.9136 119.022 99.4887 119.177 99.0927C119.332 98.6966 119.571 98.3388 119.879 98.044C120.599 97.4741 121.506 97.1903 122.424 97.2472H129.612C130.085 97.1904 130.565 97.2417 131.016 97.3972C131.466 97.5526 131.875 97.8082 132.211 98.1444C132.548 98.4807 132.803 98.8888 132.957 99.3379C133.112 99.7869 133.162 100.265 133.103 100.736L132.958 111.385ZM145.079 136.134C144.865 136.278 144.61 136.35 144.352 136.339C144.038 136.361 143.727 136.267 143.479 136.074C143.264 135.827 143.11 135.533 143.03 135.216L142.339 133.623H136.836L136.158 135.216C136.043 135.53 135.865 135.818 135.636 136.062C135.405 136.241 135.117 136.331 134.824 136.315C134.552 136.33 134.283 136.254 134.061 136.098C133.87 135.958 133.74 135.75 133.697 135.518C133.655 135.24 133.706 134.956 133.842 134.709L138.182 125.437C138.319 125.115 138.536 124.833 138.812 124.616C139.063 124.444 139.361 124.351 139.667 124.351C139.972 124.351 140.27 124.444 140.521 124.616C140.797 124.83 141.01 125.114 141.139 125.437L145.442 134.758C145.578 135.009 145.633 135.295 145.6 135.579C145.58 135.697 145.535 135.81 145.468 135.909C145.401 136.009 145.314 136.094 145.212 136.158L145.079 136.134ZM157.2 135.144C157.225 135.459 157.125 135.771 156.921 136.013C156.826 136.121 156.708 136.205 156.576 136.262C156.444 136.318 156.301 136.345 156.158 136.339C155.895 136.351 155.634 136.288 155.406 136.158C155.183 135.997 154.986 135.801 154.824 135.579L149.418 128.709V135.096C149.438 135.429 149.329 135.757 149.115 136.013C148.996 136.125 148.855 136.212 148.7 136.268C148.546 136.324 148.382 136.348 148.218 136.339C148.054 136.348 147.89 136.324 147.736 136.268C147.582 136.212 147.441 136.125 147.321 136.013C147.21 135.889 147.126 135.744 147.074 135.586C147.021 135.428 147.003 135.261 147.018 135.096V125.631C146.991 125.282 147.1 124.936 147.321 124.665C147.427 124.554 147.555 124.466 147.697 124.408C147.839 124.35 147.992 124.322 148.146 124.327C148.39 124.31 148.632 124.374 148.836 124.508C149.052 124.666 149.24 124.857 149.394 125.075L154.8 131.933V125.558C154.782 125.227 154.895 124.902 155.115 124.653C155.233 124.542 155.372 124.456 155.524 124.4C155.676 124.344 155.838 124.319 156 124.327C156.164 124.318 156.328 124.342 156.482 124.398C156.636 124.454 156.777 124.541 156.897 124.653C157.007 124.775 157.09 124.919 157.142 125.074C157.194 125.23 157.214 125.395 157.2 125.558V135.144ZM175.952 114.234C175.898 114.623 175.762 114.996 175.554 115.329C175.345 115.662 175.067 115.947 174.739 116.165C174.02 116.633 173.174 116.869 172.315 116.841C171.249 116.913 170.193 116.605 169.333 115.972C168.497 115.197 167.854 114.238 167.455 113.171L165.891 109.549H150.691L149.115 113.171C148.701 114.21 148.092 115.16 147.321 115.972C146.531 116.611 145.524 116.922 144.509 116.841C143.616 116.875 142.735 116.631 141.988 116.141C141.666 115.917 141.392 115.63 141.184 115.299C140.976 114.967 140.837 114.596 140.776 114.21C140.631 113.261 140.783 112.292 141.212 111.433L153.333 85.5365C153.79 84.4383 154.535 83.4832 155.491 82.7718C156.355 82.1878 157.38 81.8842 158.424 81.9025C159.454 81.8797 160.465 82.1841 161.309 82.7718C162.245 83.5037 162.985 84.453 163.467 85.5365L175.588 111.433C176.036 112.303 176.189 113.294 176.024 114.258L175.952 114.234ZM186.17 54.3642C186 54.053 185.901 53.7085 185.88 53.355C185.859 53.0015 185.917 52.6477 186.048 52.3188C186.18 51.9898 186.382 51.6937 186.642 51.4514C186.901 51.2092 187.211 51.0266 187.549 50.9168C187.887 50.807 188.245 50.7726 188.597 50.816C188.95 50.8594 189.289 50.9795 189.59 51.168C189.891 51.3564 190.147 51.6084 190.339 51.9062C190.532 52.2041 190.656 52.5404 190.703 52.8913C191.188 54.159 186.667 55.6319 186.242 54.3884L186.17 54.3642ZM212.376 112.833C212.432 113.894 212.085 114.936 211.406 115.755C211.077 116.117 210.672 116.403 210.219 116.591C209.767 116.778 209.278 116.864 208.788 116.841C207.883 116.894 206.982 116.685 206.194 116.238C205.426 115.713 204.747 115.069 204.182 114.33L190.23 96.8608V112.664C190.273 113.23 190.202 113.799 190.023 114.337C189.844 114.876 189.561 115.374 189.188 115.803C188.775 116.18 188.288 116.469 187.759 116.651C187.229 116.834 186.668 116.907 186.109 116.866C185.545 116.906 184.978 116.833 184.443 116.651C183.908 116.468 183.415 116.18 182.994 115.803C182.615 115.377 182.326 114.88 182.143 114.341C181.96 113.802 181.886 113.232 181.927 112.664V86.3333C181.848 85.1504 182.23 83.9826 182.994 83.0736C183.348 82.6792 183.784 82.3667 184.272 82.1582C184.76 81.9496 185.288 81.85 185.818 81.8663C186.666 81.8198 187.508 82.0213 188.242 82.4458C188.993 83.0293 189.647 83.7258 190.182 84.5103L204.206 101.895V86.0918C204.165 85.5317 204.237 84.9691 204.416 84.4365C204.594 83.904 204.878 83.412 205.249 82.9891C206.126 82.3017 207.211 81.9281 208.327 81.9281C209.444 81.9281 210.528 82.3017 211.406 82.9891C212.151 83.846 212.525 84.9611 212.449 86.0918L212.376 112.833Z" fill="#BC68DA"/>
<path d="M203.989 25.5219C203.94 27.1863 203.741 28.8429 203.395 30.4718C202.398 30.6163 201.385 30.6163 200.389 30.4718C200.738 28.7384 200.92 26.9759 200.934 25.208C201.903 25.5934 202.961 25.7021 203.989 25.5219Z" fill="#BC68DA"/>
<path d="M208.8 26.1376C208.615 26.9722 208.225 27.7479 207.664 28.3949C207.103 29.0419 206.39 29.5399 205.588 29.844C205.745 27.8158 205.782 25.4978 205.782 25.0994C206.746 24.7923 207.676 24.3878 208.558 23.8921C208.838 24.6057 208.922 25.381 208.8 26.1376Z" fill="#BC68DA"/>
<path d="M204.849 19.3772C204.849 19.3772 204.207 18.8098 203.928 19.7997C204.288 19.9226 204.64 20.0678 204.982 20.2344L204.849 19.3772Z" fill="white"/>
<path d="M208.024 17.5418C206.808 17.4712 205.588 17.536 204.387 17.735C203.563 17.8754 202.752 18.0854 201.963 18.3628C201.321 18.5801 199.539 19.22 199.296 19.2441H199.018C199.018 19.6304 199.018 20.053 199.115 20.5601C199.227 21.6186 199.255 22.6843 199.199 23.7473C199.619 24.3855 200.229 24.8756 200.945 25.1478C201.912 25.5413 202.969 25.6584 203.999 25.4858C204.096 25.4916 204.193 25.4916 204.29 25.4858C204.799 25.391 205.302 25.2619 205.793 25.0995C206.758 24.7924 207.688 24.3879 208.569 23.8922C210.29 22.9022 211.624 21.6104 211.539 20.3548C211.454 19.0992 209.89 18.1093 208.024 17.5418Z" fill="#BC68DA"/>
<path d="M207.273 16.4915C206.245 16.5375 205.223 16.6749 204.219 16.902C202.515 17.2785 200.896 17.9662 199.443 18.9302C199.396 18.9662 199.361 19.0151 199.341 19.0709C199.322 19.1267 199.319 19.1869 199.334 19.2441H199.055C199.055 19.6304 199.055 20.053 199.152 20.5601C199.264 21.6186 199.293 22.6843 199.237 23.7473C199.186 24.9056 199.056 26.0591 198.849 27.2001C198.849 27.502 198.752 27.7917 198.692 28.0452C198.558 28.6851 198.425 29.1801 198.352 29.4699C198.352 29.5423 198.352 29.6027 198.352 29.6509C198.35 29.6992 198.35 29.7476 198.352 29.7958C195.286 28.5885 193.31 26.0774 193.734 23.5421C193.729 23.5141 193.729 23.4855 193.734 23.4575L192.643 23.1799C192.17 23.1799 189.176 23.0833 187.601 23.1799C187.45 23.1927 187.3 23.1452 187.184 23.0478C187.068 22.9505 186.995 22.8112 186.983 22.6607C186.97 22.5102 187.017 22.3608 187.115 22.2454C187.213 22.1299 187.353 22.0578 187.504 22.045C189.273 21.9001 192.607 22.045 192.752 22.045H192.873L194.086 22.3589C194.081 22.3148 194.081 22.2703 194.086 22.2261L193.067 21.2361C192.413 21.0913 189.819 20.5238 188.122 20.2462C188.048 20.2335 187.977 20.2064 187.914 20.1665C187.85 20.1265 187.795 20.0745 187.752 20.0134C187.708 19.9523 187.678 19.8833 187.661 19.8104C187.644 19.7374 187.643 19.6619 187.655 19.5882C187.668 19.5145 187.695 19.444 187.735 19.3807C187.775 19.3174 187.828 19.2627 187.889 19.2195C187.95 19.1763 188.02 19.1456 188.093 19.1291C188.166 19.1127 188.242 19.1107 188.316 19.1234C190.28 19.4493 193.443 20.1616 193.467 20.1616C193.569 20.1902 193.664 20.2395 193.746 20.3065L194.752 21.2844C195.49 20.5244 196.4 19.9529 197.407 19.6184C196.861 17.8799 197.734 15.4894 199.698 13.8113C202.037 11.8072 206.013 10.7931 207.358 12.5195C208.049 13.5095 207.88 14.9944 207.273 16.4915Z" fill="#BC68DA"/>
</g>
<defs>
<clipPath id="clip0_172_91">
<rect width="240" height="145.116" fill="white"/>
</clipPath>
</defs>
</svg>
