<svg width="240" height="145" viewBox="0 0 240 145" fill="none" xmlns="http://www.w3.org/2000/svg">
<g clip-path="url(#clip0_51_1012)">
<path d="M91 126C90.5851 125.715 89.5032 125.962 89 126H87V129H89C89.5019 129.041 90.5837 129.281 91 129C91.1567 128.866 90.9181 128.189 91 128C91.0819 127.811 91.0092 128.205 91 128C91.0216 127.786 91.0825 127.2 91 127C90.9175 126.801 91.1673 126.138 91 126Z" fill="#BC68DA"/>
<path d="M140 127L138 131H142L140 127Z" fill="#BC68DA"/>
<path d="M158 92L154 103H163L159 92H158Z" fill="#BC68DA"/>
<path d="M232 83C232.121 82.5658 231.891 82.4462 232 82C233.723 81.5141 235.968 80.4566 237 79C238.032 77.5433 238.119 75.7782 238 74C237.881 72.2217 237.217 70.3073 236 69C234.783 67.6927 232.773 67.2537 231 67C228.03 60.2703 221.564 55.0864 214 53C212.127 52.4836 210.943 51.9392 209 52C212.273 50.1065 214.455 47.3397 215 45C215.485 42.9014 214.352 42.2291 212 42C212.479 41.1843 213.101 39.9392 213 39C212.515 36.2984 208.042 36.3949 203 39C199.255 40.9417 196.079 43.5879 195 46C194.514 45.9374 193.49 46.0017 193 46C186.794 46 180.073 51.5487 180 57C180 61.5105 184.873 65.1075 190 66C189.494 67.0554 189.383 67.8943 189 69H178C169.43 55.4561 161.636 36.8352 160 33C165.455 35.605 168.218 37.1698 172 36C180.485 33.3587 184.479 22.9165 183 22C174.588 16.8019 168.339 17.7939 164 19C165.251 17.878 167.087 17.4077 168 16C169.439 13.7589 169.684 10.6406 170 7.99995C170.059 7.55818 170.219 7.3887 170 6.99995C169.781 6.61121 169.41 6.18057 169 5.99995C168.591 5.81934 168.437 5.90037 168 5.99995C167.564 6.09954 167.29 5.6599 167 5.99995V6.99995C165.675 8.56823 163.602 9.71252 162 11C160.573 12.1232 158.698 13.3485 157 14C155.326 14.623 153.778 14.8223 152 15C150.525 15.1293 149.479 15.0651 148 15C145.425 14.1839 142.688 13.2826 140 13C137.66 12.7148 135.352 12.8351 133 13C131.439 12.5829 129.508 12.5791 128 12C126.494 11.423 125.311 9.93643 124 8.99995C122.653 8.00381 121.069 7.28696 120 5.99995C118.788 4.62507 118.346 2.82107 117 0.999955C116.75 0.658324 116.399 0.14564 116 -4.53591e-05C115.601 -0.145731 114.413 -0.0994914 114 -4.53591e-05C113.587 0.0994007 113.288 0.688952 113 0.999955C112.713 1.31096 113.065 1.5824 113 1.99995C112.598 4.54006 112.168 6.56544 113 8.99995C113.725 11.1352 115.486 13.324 117 15C113.659 13.7121 109.583 12.9387 106 13C104.546 13 98.4667 13.613 97.0001 15C96.1516 15.808 97.5273 25.4783 102 29C108.679 34.2583 117.6 28.2412 118 28C117.915 28.2773 114.418 36.9939 113 43C111.822 47.5896 111.503 52.2888 112 57C112.133 57.5427 112.818 58.4693 113 59C113.286 59.9374 113.56 61.1235 114 62C114.342 62.7716 114.535 63.2948 115 64C116.974 67.063 119.623 69.6027 123 71C126.58 72.2683 131.209 72.266 135 72C136.952 71.9337 138.099 72.447 140 72C141.896 71.5718 144.293 70.9241 146 70C146.208 69.8956 145.776 68.9375 146 69C146.224 69.0624 146.877 69.8033 147 70C147.072 70.1245 147.001 69.856 147 70C147.002 70.133 147.059 70.8805 147 71C146.941 71.1194 147.107 70.9201 147 71C143.485 73.4742 139.282 74.5482 135 75C133.466 75.2189 131.549 76.0021 130 76C129.406 76 128.57 76 128 76C125.787 75.9255 124.115 75.6538 122 75C118.791 73.8558 115.373 71.4343 113 69C112.903 68.8914 113.085 69.1085 113 69H93.0001C92.4603 67.9864 92.2651 67.1163 92.0001 66C93.9939 65.133 95.6243 63.6773 97.0001 62C100.951 58.4014 103.685 53.1663 105 48C105 47.9035 105 48.0964 105 48C105.088 47.4656 104.999 46.5413 105 46C105.005 45.2308 105.15 44.7546 105 44L107 40C107.026 39.9638 106.999 40.0445 107 40C107.001 39.9554 107.025 40.0368 107 40C106.975 39.9631 107.042 40.0158 107 40C106.958 39.9841 107.043 39.989 107 40L104 41C102.449 38.7326 99.5031 37 96.0001 37C92.1334 37 89.7273 40.3336 87.0001 44C85.5455 43.8793 83.3698 44 82.0001 44C74.3879 44 71.0001 44.4381 71.0001 52C71.0001 58.1025 76.0243 63.9738 82.0001 66C82.2437 66.989 82.6223 68.0536 83.0001 69H57.0001C61.4971 64.9884 64.1464 59.7194 66.0001 54C66.6182 52.1788 66.8425 51.9045 65.0001 51C58.7576 47.9366 47.2546 44.5979 37.0001 49C36.6728 49.1326 36.3152 49.8432 36.0001 50C34.6304 49.6743 31.5516 49.1919 26.0001 50C22.7395 50.5186 19.1031 52.3356 18.0001 54C17.1516 55.206 17.691 54.9869 19.0001 56L24.0001 60C21.6346 63.3258 19.7727 67.3271 18.0001 71C12.697 71.6508 7.41484 73.0051 3.00006 76C2.8158 76.1374 3.08715 76.7878 3.00006 77C2.91298 77.2121 2.96523 76.7734 3.00006 77C3.0349 77.2265 2.85321 77.8234 3.00006 78C3.14692 78.1765 3.78292 77.9236 4.00006 78L10.0001 81C3.49076 87.8788 -0.0171741 96.5519 6.32226e-05 106V108C6.32226e-05 117.852 3.99871 127.034 11.0001 134C18.0014 140.966 27.0987 145 37.0001 145H204C213.458 145 223.312 141.654 230 135C236.688 128.346 240 119.41 240 110V106C240.008 97.6847 237.167 89.5357 232 83ZM129 43C128.876 43.0481 129.133 43.0003 129 43C128.779 43.0014 128.17 43.1416 128 43C126.629 41.8137 124.796 41.271 123 41C122.166 40.8539 121.834 40.8539 121 41C120.208 41.148 119.584 41.4474 119 42C118.823 42.1752 118.25 42 118 42C117.75 42 117.177 42.1752 117 42C116.88 41.8757 117.036 41.1682 117 41C116.964 40.8317 116.942 41.1622 117 41C117.256 40.3729 117.507 39.4659 118 39C118.493 38.534 119.357 38.2216 120 38C121.188 37.5444 122.742 37.8052 124 38C125.234 38.1848 125.967 38.3035 127 39C128.059 39.669 129.476 40.8662 130 42C130.053 42.1116 129.994 41.8765 130 42C130.006 42.1234 130.042 41.8835 130 42C129.958 42.1164 130.083 42.9082 130 43C129.917 43.0917 129.112 42.947 129 43ZM99.0001 41C99.3475 40.9618 99.6897 40.8399 100 41C100.31 41.1601 100.831 41.6954 101 42C101.169 42.3045 101.029 42.6534 101 43C100.971 43.3465 101.218 43.7279 101 44C100.782 44.272 100.333 43.8938 100 44C99.6672 44.1061 99.3362 44.0955 99.0001 44C98.6639 43.9044 98.2264 44.265 98.0001 44C97.7737 43.7349 97.0405 43.3454 97.0001 43C96.949 42.533 97.7046 42.3663 98.0001 42C98.2955 41.6336 98.5309 41.0515 99.0001 41ZM147 47C146.83 46.9896 146.141 47.0955 146 47C145.859 46.9044 146.072 47.1538 146 47C145.667 46.2689 145.673 45.4431 145 45C144.297 44.5358 142.82 44.1981 142 44C140.256 43.5634 138.707 43.4374 137 44C136.794 44.0736 136.206 44.0728 136 44C135.794 43.9271 136.113 44.1862 136 44C135.887 43.8137 135.969 43.2152 136 43C136.031 42.7847 135.839 43.1466 136 43C136.913 42.1645 137.782 41.2286 139 41C140.207 40.7781 141.811 40.6986 143 41C144.237 41.3103 145.076 42.1244 146 43C146.506 43.4575 146.726 44.3764 147 45C147.274 45.6235 148.007 46.3196 148 47C147.969 47.2158 148.161 46.8526 148 47C147.839 47.1473 147.219 46.9881 147 47ZM86.0001 67C86.6819 66.9996 87.3263 67.1039 88.0001 67C88.2119 67.7841 88.6872 68.25 89.0001 69H87.0001C86.607 68.3067 86.2437 67.7581 86.0001 67ZM54.0001 53C54.0689 52.6168 54.7287 52.2803 55.0001 52C55.2714 51.7196 55.6179 52.0828 56.0001 52C56.3823 51.9171 56.6361 51.8574 57.0001 52C57.364 52.1425 57.7772 52.6801 58.0001 53C58.2229 53.3198 57.9936 53.6108 58.0001 54C58.0065 54.3891 58.2122 54.673 58.0001 55C57.7879 55.327 57.3591 54.8455 57.0001 55C56.641 55.1544 56.3848 56.0703 56.0001 56C55.7449 55.9549 55.2182 55.1391 55.0001 55C54.7819 54.8608 54.1477 55.2118 54.0001 55C53.8525 54.7881 54.0545 54.252 54.0001 54C53.9457 53.7479 53.9529 53.2535 54.0001 53ZM59.0001 88L48.0001 114C47.625 114.96 46.8291 115.383 46.0001 116C45.1173 116.553 44.0422 117.051 43.0001 117C41.9465 117.051 40.8963 116.553 40.0001 116C39.1545 115.383 38.4078 114.961 38.0001 114L26.0001 88C25.5093 87.0667 25.8239 86.0385 26.0001 85C26.1602 84.1478 26.2895 83.5016 27.0001 83C27.7887 82.4799 29.0545 81.9662 30.0001 82C31.0668 81.9212 32.1443 82.3614 33.0001 83C33.7571 83.7196 33.6236 84.0279 34.0001 85L43.0001 105L52.0001 85C52.3944 84.0201 52.1995 83.6925 53.0001 83C53.8257 82.3956 54.9768 81.9413 56.0001 82C56.9033 81.9719 58.2583 82.4864 59.0001 83C59.6834 83.5146 59.8582 84.1591 60.0001 85C60.1394 86.0435 59.4866 87.0652 59.0001 88ZM69.0001 115C68.5784 114.543 68.2083 114.584 68.0001 114C67.7918 113.416 67.9617 112.619 68.0001 112V87C67.9628 86.3793 67.7919 85.5862 68.0001 85C68.2082 84.4137 68.5792 83.4595 69.0001 83C69.4678 82.579 70.4047 83.2071 71.0001 83C71.5954 82.7928 72.3706 81.9607 73.0001 82H89.0001C89.9577 81.9326 91.2729 82.3764 92.0001 83C92.3105 83.3436 91.8501 83.5626 92.0001 84C92.15 84.4373 93.0346 85.5391 93.0001 86C93.058 86.9405 92.6177 87.2856 92.0001 88C91.6448 88.3176 90.4521 88.8466 90.0001 89C89.548 89.1533 89.4763 89.0355 89.0001 89H77.0001V96H88.0001C88.9495 95.9391 90.279 95.3825 91.0001 96C91.5812 96.7291 92.0001 98.0694 92.0001 99C92.0001 99.9305 91.5812 101.271 91.0001 102C90.279 102.617 88.9495 102.061 88.0001 102H77.0001V109H89.0001C89.4763 108.964 89.548 109.847 90.0001 110C90.4521 110.153 91.6448 109.682 92.0001 110C92.5662 110.729 93.0001 112.079 93.0001 113C93.0001 113.921 92.5662 114.271 92.0001 115C91.2729 115.624 89.9577 116.067 89.0001 116H73.0001C72.3745 116.05 71.5956 116.197 71.0001 116C70.4045 115.803 69.4711 115.412 69.0001 115ZM93.0001 136C92.7575 136.174 93.2985 136.018 93.0001 136C92.6847 136.015 92.2689 136.165 92.0001 136C91.7504 135.807 91.15 135.277 91.0001 135L89.0001 132C88.8709 131.732 89.2645 132.139 89.0001 132C88.7245 131.883 88.2997 131.994 88.0001 132H87.0001V135C87.0236 135.356 86.2334 135.729 86.0001 136C85.8756 136.124 86.1654 135.94 86.0001 136C85.8347 136.06 86.1756 136.014 86.0001 136C85.8225 136.016 85.1677 136.06 85.0001 136C84.8325 135.939 85.1259 136.126 85.0001 136C84.7668 135.729 83.9766 135.356 84.0001 135V126C83.9874 125.823 83.9417 125.168 84.0001 125C84.0584 124.832 84.8801 125.132 85.0001 125C85.2682 124.77 85.6465 123.978 86.0001 124H90.0001C91.0925 123.929 92.1422 124.323 93.0001 125C93.3631 125.334 92.8156 126.543 93.0001 127C93.1845 127.457 94.0296 127.509 94.0001 128C94.016 128.663 93.3332 129.425 93.0001 130C92.6698 130.534 92.5774 130.749 92.0001 131C91.7615 131.1 91.2533 130.947 91.0001 131C91.1973 131.057 91.8275 131.889 92.0001 132C92.3835 132.267 92.7865 132.586 93.0001 133L94.0001 135C94.1438 135.25 94.0009 134.712 94.0001 135C93.9979 135.128 94.0543 135.884 94.0001 136C93.9458 136.116 93.0972 135.916 93.0001 136ZM106 131C106.029 131.968 105.404 133.119 105 134C104.633 134.738 104.742 135.635 104 136C103.128 136.404 101.961 136.031 101 136C100.252 136.014 99.7122 136.229 99.0001 136C98.3973 135.807 97.4583 135.435 97.0001 135C96.5521 134.558 96.1975 133.596 96.0001 133C95.7741 132.282 95.9828 131.752 96.0001 131V126C95.9874 125.827 95.9394 125.162 96.0001 125C96.0608 124.838 95.877 125.122 96.0001 125C96.1231 124.878 95.837 124.06 96.0001 124C96.1631 123.94 96.8265 123.987 97.0001 124C97.1749 123.989 96.8366 123.937 97.0001 124C97.1635 124.063 97.8779 124.875 98.0001 125C98.1222 125.125 97.9417 124.836 98.0001 125C98.0584 125.164 98.0162 125.826 98.0001 126V131C97.9424 131.77 98.5286 132.387 99.0001 133C99.2441 133.249 99.6737 133.875 100 134C100.326 134.125 100.651 134.022 101 134C101.347 134.02 101.676 134.125 102 134C102.324 133.875 102.757 133.248 103 133C103.471 132.387 103.058 131.77 103 131V126C102.983 125.822 102.939 125.168 103 125C103.061 124.832 103.872 125.126 104 125C104.128 124.874 103.831 124.059 104 124C104.17 123.941 104.821 123.981 105 124C105.171 123.987 104.839 123.942 105 124C105.161 124.058 105.877 124.881 106 125C106.117 125.133 105.944 124.832 106 125C106.056 125.168 106.014 125.824 106 126V131ZM117 134C116.783 134.473 116.412 134.681 116 135C115.541 135.339 114.55 135.845 114 136C113.357 136.176 112.667 136.008 112 136C111.048 135.994 109.914 136.266 109 136C108.575 135.885 108.38 135.221 108 135C107.773 134.889 108.111 135.226 108 135C107.904 134.797 107.975 134.223 108 134C108.021 133.781 107.855 134.166 108 134C108.133 133.829 107.788 133.047 108 133C108.251 132.959 108.781 132.873 109 133C109.466 133.258 110.478 133.89 111 134C111.529 134.12 111.458 134 112 134C112.602 134.052 113.473 134.295 114 134C114.157 133.9 113.911 133.162 114 133C114.089 132.838 115.001 133.185 115 133C115.006 132.852 114.063 132.134 114 132C113.937 131.866 114.118 132.09 114 132C113.607 131.76 113.455 132.071 113 132L111 131C110.086 130.858 109.663 130.642 109 130C108.736 129.717 108.133 129.362 108 129C107.867 128.637 107.981 128.385 108 128C107.99 127.478 107.767 126.468 108 126C108.239 125.531 108.585 125.325 109 125C109.444 124.648 110.453 124.149 111 124C111.688 123.82 112.291 123.948 113 124C113.617 123.999 114.401 123.855 115 124C115.562 124.135 115.51 124.696 116 125C116.207 125.111 116.909 125.784 117 126C117.08 126.19 117.024 125.795 117 126C116.973 126.203 116.139 126.849 116 127C115.861 127.151 116.201 126.955 116 127C115.736 127.036 115.232 127.13 115 127C114.618 126.803 114.422 127.083 114 127C113.601 126.917 113.407 126.005 113 126C112.588 125.988 112.39 126.869 112 127C111.708 127.103 111.2 126.764 111 127C110.831 127.217 110.995 127.725 111 128C110.997 128.148 110.939 127.864 111 128C111.061 128.136 110.887 128.903 111 129C111.362 129.25 111.564 128.933 112 129L114 130C114.898 130.14 115.314 130.407 116 131C116.268 131.264 116.862 131.651 117 132C117.138 132.349 117.016 132.625 117 133C117.01 133.513 117.225 133.538 117 134ZM127 134C126.783 134.473 126.412 134.681 126 135C125.541 135.339 125.55 135.845 125 136C124.357 136.176 123.667 136.008 123 136C122.048 135.994 120.914 136.266 120 136C119.575 135.885 119.38 135.221 119 135C118.773 134.889 118.111 135.226 118 135C117.904 134.797 117.975 134.223 118 134C118.021 133.781 118.855 134.166 119 134C119.133 133.829 118.788 133.047 119 133C119.251 132.959 119.781 132.873 120 133C120.466 133.258 120.478 133.89 121 134C121.529 134.12 122.458 134 123 134C123.602 134.052 124.473 134.295 125 134C125.157 133.9 124.911 133.162 125 133C125.089 132.838 125.001 133.185 125 133C125.006 132.852 125.063 132.134 125 132C124.937 131.866 125.118 132.09 125 132C124.607 131.76 124.455 132.071 124 132L122 131C121.086 130.858 119.663 130.642 119 130C118.736 129.717 119.133 129.362 119 129C118.867 128.637 117.981 128.385 118 128C117.99 127.478 118.767 126.468 119 126C119.239 125.531 119.585 125.325 120 125C120.446 124.65 120.453 124.152 121 124C121.625 123.815 122.348 123.991 123 124C123.617 123.999 124.401 123.855 125 124C125.562 124.135 126.51 124.696 127 125C127.207 125.111 126.909 125.784 127 126C127.08 126.19 127.024 125.795 127 126C126.973 126.203 127.139 126.849 127 127C126.861 127.151 126.201 126.955 126 127C125.736 127.036 126.232 127.13 126 127C125.618 126.803 124.422 126.083 124 126C123.601 125.916 123.408 126.004 123 126C122.588 125.988 122.39 125.869 122 126C121.708 126.103 121.2 126.764 121 127C120.831 127.217 120.995 127.725 121 128C120.997 128.148 120.939 127.864 121 128C121.061 128.136 120.887 128.903 121 129C121.362 129.25 122.564 128.933 123 129H124C124.898 129.14 126.314 130.407 127 131C127.268 131.264 127.862 130.651 128 131C128.138 131.349 128.016 132.625 128 133C128.079 133.523 128.175 133.501 128 134H127ZM132 135C132.024 135.356 132.233 135.729 132 136C131.876 136.124 131.165 135.94 131 136C130.835 136.06 131.176 136.014 131 136C130.823 136.016 130.168 136.06 130 136C129.832 135.939 130.126 136.126 130 136C129.767 135.729 128.977 135.356 129 135V126C128.982 125.645 129.771 125.273 130 125C130.269 124.773 130.647 124 131 124C131.353 124 131.731 124.773 132 125C132.229 125.273 132.019 125.645 132 126V135ZM133 111C133.013 111.843 132.41 113.262 132 114C131.564 114.702 130.797 114.77 130 115C128.388 115.537 126.679 115.735 125 116C123.233 116.288 121.791 116.999 120 117C116.597 117.107 113.061 116.485 110 115C107.362 113.653 105.431 111.584 104 109C102.53 106.188 101.929 103.169 102 100C101.966 97.5014 102.117 94.3392 103 92C103.831 89.8515 105.323 88.5854 107 87C108.677 85.4145 110.801 83.7153 113 83C115.57 82.1461 118.292 81.9442 121 82C122.663 82.0057 124.365 81.7008 126 82C127.725 82.3278 129.447 83.1844 131 84C131.758 84.3031 132.652 85.2644 133 86C133.302 86.6814 133.112 87.2635 133 88C132.892 88.746 132.434 89.3821 132 90C131.572 90.5977 130.715 90.8191 130 91C129.149 91.2005 128.775 91.4027 128 91C126.991 90.5395 126.086 90.2289 125 90C123.804 89.7517 122.222 88.9922 121 89C119.126 88.9508 116.674 90.1591 115 91C113.576 91.758 112.667 92.5366 112 94C111.239 95.753 110.942 98.0913 111 100C111 103.28 112.384 105.328 114 107C115.588 108.556 117.8 109 121 109C122.069 108.991 122.947 109.184 124 109C124.594 108.903 125.394 109.145 126 109V103H122C121.078 103.058 120.713 103.585 120 103C119.694 102.697 119.155 102.401 119 102C118.845 101.599 118.976 100.429 119 100C118.974 99.5761 118.845 99.3956 119 99C119.155 98.6043 119.693 98.2944 120 98C120.72 97.4307 121.082 96.9431 122 97H130C130.473 96.9433 130.55 96.8447 131 97C131.45 97.1553 131.664 97.6641 132 98C132.336 98.3359 132.846 98.5514 133 99C133.155 99.4486 133.059 100.529 133 101V111ZM145 136C144.786 136.144 144.258 136.01 144 136C143.686 136.022 143.248 136.193 143 136C142.785 135.754 143.08 135.317 143 135L142 134H137L136 135C135.885 135.313 136.229 135.756 136 136C135.769 136.179 135.293 136.016 135 136C134.728 136.015 134.223 136.156 134 136C133.809 135.86 134.043 135.232 134 135C133.958 134.722 133.864 135.246 134 135L138 125C138.137 124.678 138.724 125.216 139 125C139.251 124.827 139.695 124 140 124C140.305 124 140.749 124.827 141 125C141.276 125.214 140.871 124.677 141 125L145 135C145.135 135.251 146.033 134.717 146 135C145.98 135.118 145.067 135.9 145 136C145.102 135.936 144.933 136.1 145 136ZM157 135C157.025 135.315 157.204 135.758 157 136C156.905 136.107 157.132 135.944 157 136C156.868 136.056 156.144 136.005 156 136C155.737 136.012 155.228 136.13 155 136C154.777 135.839 155.162 135.222 155 135L149 129V135C149.019 135.333 149.214 135.744 149 136C148.88 136.112 149.154 135.944 149 136C148.846 136.056 148.164 136.009 148 136C147.836 136.009 148.154 136.056 148 136C147.846 135.944 147.12 136.112 147 136C146.889 135.876 147.052 135.158 147 135C146.948 134.842 146.984 135.165 147 135V126C146.973 125.652 146.778 125.271 147 125C147.106 124.889 147.858 124.058 148 124C148.142 123.942 147.847 123.995 148 124C148.244 123.983 148.796 123.866 149 124C149.215 124.158 148.846 124.782 149 125L155 132V125C154.982 124.669 154.78 125.249 155 125C155.118 124.89 155.848 124.056 156 124C156.152 123.944 155.838 123.993 156 124C156.164 123.991 155.846 123.944 156 124C156.154 124.056 156.88 124.888 157 125C157.11 125.122 156.948 124.844 157 125C157.052 125.155 157.014 124.837 157 125V135ZM176 114C175.947 114.389 176.209 114.667 176 115C175.791 115.333 175.328 115.782 175 116C174.281 116.467 172.859 117.027 172 117C170.934 117.071 169.859 116.632 169 116C168.164 115.225 167.399 114.065 167 113L166 109H151L149 113C148.586 114.037 147.771 115.189 147 116C146.21 116.638 146.015 117.081 145 117C144.107 117.034 142.747 116.489 142 116C141.678 115.776 141.208 115.332 141 115C140.792 114.668 141.061 114.386 141 114C140.855 113.053 140.571 111.858 141 111L153 85C153.456 83.9029 154.044 83.7106 155 83C155.865 82.4166 156.956 81.9816 158 82C159.03 81.9771 160.156 82.4129 161 83C161.935 83.7311 162.519 83.9176 163 85L176 111C176.448 111.869 176.165 113.037 176 114ZM186 54C185.83 53.6891 186.021 53.3531 186 53C185.979 52.6468 185.868 52.3286 186 52C186.132 51.6713 186.741 51.242 187 51C187.259 50.7579 187.662 51.1097 188 51C188.338 50.8903 188.647 50.9566 189 51C189.353 51.0433 189.699 50.8117 190 51C190.301 51.1882 189.808 51.7024 190 52C190.192 52.2975 190.953 52.6494 191 53C191.485 54.2663 186.424 55.2422 186 54ZM212 113C212.056 114.059 211.679 115.182 211 116C210.671 116.362 210.453 116.812 210 117C209.547 117.188 209.49 117.023 209 117C208.095 117.053 206.788 116.446 206 116C205.232 115.475 204.565 114.738 204 114L190 97V113C190.042 113.565 190.179 113.462 190 114C189.821 114.538 189.373 115.571 189 116C188.587 116.376 188.53 116.817 188 117C187.471 117.182 186.559 117.041 186 117C185.436 117.041 184.535 117.182 184 117C183.465 116.818 183.421 116.376 183 116C182.621 115.574 182.183 114.538 182 114C181.817 113.461 181.959 113.567 182 113V86C181.921 84.8183 182.236 83.9081 183 83C183.354 82.606 183.512 82.2083 184 82C184.488 81.7916 185.469 81.9836 186 82C186.848 81.9535 187.266 81.5759 188 82C188.75 82.5828 189.465 83.2163 190 84L204 102V86C203.959 85.4404 203.821 84.532 204 84C204.179 83.4679 204.629 83.4224 205 83C205.878 82.3133 206.883 82 208 82C209.117 82 210.122 82.3133 211 83C211.745 83.856 212.077 84.8704 212 86V113Z" fill="#BC68DA"/>
<path d="M204 25C203.946 26.5491 203.385 28.484 203 30C201.892 30.1345 201.108 30.1345 200 30C200.388 28.3867 200.985 26.6454 201 25C202.077 25.3587 202.858 25.1678 204 25Z" fill="#BC68DA"/>
<path d="M209 26C208.83 26.8413 208.515 28.3478 208 29C207.485 29.6522 206.737 29.6934 206 30C206.145 27.9554 206 25.4016 206 25C206.886 24.6905 208.19 24.4997 209 24C209.257 24.7194 209.112 25.2372 209 26Z" fill="#BC68DA"/>
<path d="M205 19C205 19 204.264 19.0285 204 20C204.342 20.1206 204.676 19.8365 205 20V19Z" fill="#BC68DA"/>
<path d="M208 18.0002C206.738 17.93 206.246 17.8024 205 18.0002C204.144 18.1397 202.818 18.7245 202 19.0002C201.333 19.2162 199.251 19.9762 199 20.0002C199 20.3842 198.899 20.4963 199 21.0002C199.116 22.0523 199.057 22.9437 199 24.0002C199.435 24.6346 200.257 25.7298 201 26.0002C202.003 26.3914 202.931 26.1718 204 26.0002C204.1 26.006 203.899 26.006 204 26.0002C204.528 25.906 205.489 26.1617 206 26.0002C207.001 25.695 208.085 24.4929 209 24.0002C210.786 23.0163 212.088 22.2481 212 21.0002C211.912 19.7523 209.937 18.5642 208 18.0002Z" fill="#BC68DA"/>
<path d="M207 17C205.963 17.0457 205.013 16.7749 204 17C202.282 17.3733 201.465 18.0444 200 19C199.953 19.0357 199.02 18.9447 199 19C198.981 19.0553 198.986 19.9433 199 20C199 20.383 198.903 20.4974 199 21C199.113 22.0494 199.056 22.9462 199 24C198.948 25.1483 199.209 25.8689 199 27C199 27.2992 199.061 27.7487 199 28C198.866 28.6344 198.074 29.7128 198 30C198 30.0718 198 29.9522 198 30C197.998 30.0479 197.998 29.9522 198 30C194.908 28.8032 193.573 26.5134 194 24C193.995 23.9723 193.995 24.0277 194 24L193 23C192.524 23 189.589 22.9043 188 23C187.848 23.0127 187.117 23.0965 187 23C186.883 22.9035 187.013 23.1492 187 23C186.987 22.8508 186.902 23.1145 187 23C187.099 22.8856 187.848 22.0127 188 22C189.785 21.8564 192.854 22 193 22L194 23C193.996 22.9563 193.996 22.0438 194 22H193C192.34 21.8564 189.711 21.2753 188 21C187.926 20.9875 188.064 20.0396 188 20C187.936 19.9604 188.044 20.0606 188 20C187.957 19.9395 188.017 20.0724 188 20C187.984 19.9277 187.988 20.0731 188 20C188.013 19.9269 187.96 20.0627 188 20C188.041 19.9373 187.939 20.0428 188 20C188.062 19.9572 187.926 19.0164 188 19C188.074 18.9837 187.926 18.9875 188 19C189.98 19.3232 193.976 20 194 20C194.103 20.0283 193.918 20.9336 194 21L195 22C195.744 21.2466 196.985 20.3317 198 20C197.45 18.2766 198.02 15.6636 200 14C202.359 12.0133 206.644 11.2886 208 13C208.697 13.9814 207.611 15.516 207 17Z" fill="#BC68DA"/>
</g>
<defs>
<clipPath id="clip0_51_1012">
<rect width="240" height="145" fill="white"/>
</clipPath>
</defs>
</svg>
