<svg width="69" height="67" viewBox="0 0 69 67" fill="none" xmlns="http://www.w3.org/2000/svg">
<path fill-rule="evenodd" clip-rule="evenodd" d="M26.6411 2.17014C34.8503 1.45567 40.728 2.97257 47.9535 7.01958C55.9396 11.4926 62.4458 17.0096 65.4077 25.3789C67.6932 31.8371 67.8705 38.4036 63.6073 43.2858C60.7309 46.5798 57.2774 46.9221 52.4218 46.9221C51.9699 46.9221 51.1009 46.7992 49.9018 46.6297L49.9013 46.6297L49.901 46.6296L49.9008 46.6296L49.9006 46.6296L49.9004 46.6295L49.5481 46.5798L49.1622 46.5256C47.6418 46.3135 45.8136 46.078 44.0534 46.006C42.3184 45.9349 40.5305 46.0154 39.141 46.5073C38.4355 46.7571 37.7689 47.1348 37.2754 47.713C36.7661 48.3096 36.4983 49.0533 36.4983 49.9114C36.4983 50.775 36.8016 51.584 37.2005 52.3086C37.6 53.0344 38.1344 53.7443 38.6757 54.4169C38.9233 54.7246 39.1706 55.0235 39.4126 55.3161L39.4126 55.3161C40.2783 56.3626 41.0769 57.3279 41.5811 58.3212C42.0433 59.2315 42.2225 60.0001 42.1914 60.636C42.1614 61.2498 41.9335 61.8061 41.4506 62.3228C40.4291 63.4158 38.2328 64.3597 34.3913 64.8331C30.6582 65.2932 24.3695 64.9043 18.4287 62.4172C12.5158 59.9418 7.01018 55.4204 4.62808 47.6297C1.24458 36.5638 0.698044 26.0492 5.55699 16.5489C8.00885 11.755 10.8987 8.38633 14.3312 6.10673C17.7644 3.82669 21.8087 2.59073 26.6411 2.17014ZM48.9309 5.27465C41.4007 1.05702 35.1256 -0.575843 26.4677 0.177673C21.3896 0.619642 17.0019 1.9322 13.2248 4.44068C9.44698 6.9496 6.34832 10.6095 3.77637 15.6382C-1.41228 25.7831 -0.747132 36.8898 2.71549 48.2145C5.31217 56.707 11.3378 61.6168 17.6563 64.262C23.9469 66.8956 30.5897 67.3168 34.6359 66.8181C38.5739 66.3328 41.3847 65.3223 42.9118 63.6885C43.7031 62.8418 44.1349 61.8415 44.189 60.7336C44.2421 59.6479 43.9299 58.5296 43.3645 57.4158C42.7486 56.2026 41.7555 55.0052 40.8708 53.9384C40.6491 53.6712 40.4343 53.4121 40.2338 53.1631C39.7084 52.5101 39.2646 51.9111 38.9526 51.3442C38.6399 50.7761 38.4983 50.3085 38.4983 49.9114C38.4983 49.495 38.6179 49.2208 38.7965 49.0116C38.9907 48.784 39.3124 48.5683 39.8085 48.3926C40.8224 48.0337 42.2916 47.9355 43.9716 48.0043C45.6264 48.0721 47.3712 48.2951 48.8858 48.5064C49.1185 48.5389 49.3489 48.5717 49.5747 48.6037L49.5748 48.6038C50.7575 48.7719 51.8145 48.9221 52.4218 48.9221C57.3018 48.9221 61.6036 48.6212 65.1138 44.6012C70.0753 38.9193 69.6795 31.4551 67.2931 24.7117C64.0963 15.6784 57.0993 9.8498 48.9309 5.27465ZM60.4375 33.2786C61.445 29.7846 58.9371 26.7757 55.6015 26.1133C53.4963 25.6952 51.1349 26.5685 49.5146 27.9086C47.9179 29.2292 46.6587 31.3651 47.6173 33.5654C48.0028 34.4504 48.7338 35.3898 49.5304 36.1676C50.3257 36.9441 51.2904 37.6615 52.2141 38.0175C54.0166 38.7121 55.8608 38.3378 57.3298 37.4108C58.7897 36.4896 59.9444 34.9889 60.4375 33.2786ZM55.2122 28.075C57.6938 28.5678 59.1209 30.6257 58.5158 32.7243C58.1612 33.9542 57.3161 35.0544 56.2623 35.7194C55.2176 36.3786 54.0341 36.5756 52.9331 36.1513C52.3596 35.9302 51.6201 35.4129 50.9276 34.7367C50.2365 34.062 49.6965 33.3308 49.4508 32.7669C49.0235 31.7859 49.4691 30.5418 50.7894 29.4498C52.0862 28.3773 53.8542 27.8053 55.2122 28.075ZM27.7441 47.0008C31.0797 47.6632 33.5876 50.672 32.5801 54.166C32.087 55.8763 30.9323 57.3771 29.4723 58.2983C28.0034 59.2252 26.1592 59.5996 24.3567 58.9049C23.433 58.5489 22.4683 57.8316 21.673 57.0551C20.8764 56.2772 20.1453 55.3378 19.7598 54.4529C18.8013 52.2525 20.0605 50.1166 21.6572 48.796C23.2775 47.456 25.6389 46.5827 27.7441 47.0008ZM30.6584 53.6117C31.2635 51.5132 29.8363 49.4553 27.3548 48.9625C25.9967 48.6928 24.2288 49.2648 22.932 50.3373C21.6117 51.4293 21.166 52.6733 21.5934 53.6544C21.8391 54.2183 22.3791 54.9494 23.0702 55.6242C23.7627 56.3003 24.5021 56.8177 25.0757 57.0387C26.1767 57.463 27.3601 57.2661 28.4049 56.6068C29.4587 55.9419 30.3038 54.8417 30.6584 53.6117ZM20.6416 41.2355C21.6491 37.7415 19.1412 34.7327 15.8056 34.0703C13.7004 33.6522 11.339 34.5254 9.71872 35.8655C8.12199 37.1861 6.86284 39.322 7.82137 41.5224C8.20685 42.4073 8.93792 43.3467 9.73455 44.1246C10.5298 44.901 11.4945 45.6184 12.4182 45.9744C14.2207 46.6691 16.0649 46.2947 17.5339 45.3678C18.9938 44.4466 20.1485 42.9458 20.6416 41.2355ZM15.4163 36.0319C17.8979 36.5248 19.325 38.5827 18.7199 40.6812C18.3653 41.9111 17.5202 43.0114 16.4664 43.6763C15.4217 44.3356 14.2382 44.5325 13.1372 44.1082C12.5637 43.8872 11.8242 43.3698 11.1317 42.6937C10.4407 42.0189 9.90057 41.2877 9.65493 40.7239C9.22757 39.7428 9.67318 38.4988 10.9935 37.4068C12.2903 36.3343 14.0583 35.7622 15.4163 36.0319ZM15.8056 17.1615C19.1412 17.8239 21.6491 20.8328 20.6416 24.3268C20.1485 26.0371 18.9938 27.5378 17.5339 28.459C16.0649 29.386 14.2207 29.7603 12.4182 29.0657C11.4945 28.7097 10.5298 27.9923 9.73455 27.2158C8.93792 26.438 8.20685 25.4986 7.82137 24.6136C6.86284 22.4133 8.12199 20.2774 9.71872 18.9568C11.339 17.6167 13.7004 16.7434 15.8056 17.1615ZM18.7199 23.7725C19.325 21.674 17.8979 19.616 15.4163 19.1232C14.0583 18.8535 12.2903 19.4255 10.9935 20.498C9.67318 21.59 9.22757 22.8341 9.65493 23.8151C9.90057 24.379 10.4407 25.1102 11.1317 25.785C11.8242 26.4611 12.5637 26.9784 13.1372 27.1995C14.2382 27.6238 15.4217 27.4268 16.4664 26.7676C17.5202 26.1026 18.3653 25.0024 18.7199 23.7725ZM35.5655 13.3858C36.5729 9.89177 34.065 6.88292 30.7295 6.2205C28.6242 5.80241 26.2628 6.67568 24.6426 8.01576C23.0458 9.33636 21.7867 11.4722 22.7452 13.6726C23.1307 14.5575 23.8618 15.4969 24.6584 16.2748C25.4536 17.0513 26.4184 17.7687 27.3421 18.1246C29.1445 18.8193 30.9887 18.4449 32.4577 17.518C33.9176 16.5968 35.0723 15.0961 35.5655 13.3858ZM30.3402 8.18219C32.8217 8.675 34.2488 10.7329 33.6438 12.8314C33.2891 14.0614 32.444 15.1616 31.3902 15.8266C30.3455 16.4858 29.162 16.6828 28.0611 16.2585C27.4875 16.0374 26.748 15.5201 26.0555 14.8439C25.3645 14.1691 24.8244 13.438 24.5788 12.8741C24.1514 11.893 24.597 10.649 25.9173 9.55701C27.2141 8.48449 28.9821 7.91248 30.3402 8.18219Z" fill="white"/>
</svg>
