<svg width="122" height="103" viewBox="0 0 122 103" fill="none" xmlns="http://www.w3.org/2000/svg">
<path d="M13.1609 71.7216L2.57454 95.6014C1.2193 98.6584 3.99048 101.93 7.22879 101.096L33.5588 94.3151M13.1609 71.7216C13.1609 71.7216 22.965 75.9157 27.1984 80.4763C31.4181 85.0223 33.5588 94.3151 33.5588 94.3151M13.1609 71.7216L51.7891 44.3223L87.6827 14.5782M87.6827 14.5782C87.6827 14.5782 100.07 3.79322 104.272 2.55294C108.475 1.31265 109.889 6.70757 116.082 13.043C119.576 16.6173 120.156 23.5295 120.226 26.8076C120.25 27.9589 119.7 29.0244 118.787 29.7267C115.516 32.2438 107.55 38.2134 104.86 38.7852M87.6827 14.5782C87.6827 14.5782 95.1059 19.452 98.621 23.9569C102.514 28.9455 104.86 38.7852 104.86 38.7852M104.86 38.7852L69.4524 64.5711L33.5588 94.3151" stroke="#363636" stroke-width="3" stroke-linecap="round"/>
</svg>
